<?xml version="1.0" standalone="no"?>
<!DOCTYPE svg PUBLIC "-//W3C//DTD SVG 1.1//EN" "http://www.w3.org/Graphics/SVG/1.1/DTD/svg11.dtd" >
<svg xmlns="http://www.w3.org/2000/svg" xmlns:xlink="http://www.w3.org/1999/xlink" version="1.1">
<metadata>
Created by FontForge 20170910 at Sun Dec  2 16:58:54 2012
 By Jimmy Wärting
Published by Die Gestalten Verlag GmbH &#38; Co. KG, 2012
Copyright (c) by Binnenland, 2006, Designed by Mika Mischler / 2002-2006, revised and extended 2012 All rights reserved. This software may not be reproduced, used, displayed, modified, disclosed or transferred without the express written approval of (Binnenland).
</metadata>
<defs>
<font id="TSTAR-Italic" horiz-adv-x="531" >
  <font-face 
    font-family="TSTAR"
    font-weight="450"
    font-style="italic"
    font-stretch="normal"
    units-per-em="1000"
    panose-1="2 0 8 6 3 0 0 2 0 4"
    ascent="774"
    descent="-226"
    x-height="527"
    cap-height="713"
    bbox="-81 -226 1046.96 951"
    underline-thickness="51"
    underline-position="-139"
    slope="-11"
    stemh="54"
    stemv="55"
    unicode-range="U+0020-FB02"
  />
<missing-glyph horiz-adv-x="220" 
 />
    <glyph glyph-name=".notdef" horiz-adv-x="220" 
 />
    <glyph glyph-name="space" unicode=" " horiz-adv-x="220" 
 />
    <glyph glyph-name="multiply" unicode="&#xd7;" horiz-adv-x="565" 
d="M437 131l-37 -30l-108 134l-164 -138l-31 38l164 138l-109 133l38 32l108 -134l164 137l32 -37l-166 -139z" />
    <glyph glyph-name="exclam" unicode="!" horiz-adv-x="248" 
d="M152 207h-55l98 504h55zM125 0h-83l16 83h83z" />
    <glyph glyph-name="quotedbl" unicode="&#x22;" horiz-adv-x="343" 
d="M204 555h-55l37 186h55zM328 555h-55l37 186h55z" />
    <glyph glyph-name="numbersign" unicode="#" horiz-adv-x="672" 
d="M635 446h-114l-58 -162h108l-9 -45h-115l-76 -218h-49l75 218h-161l-77 -218h-50l77 218h-98l9 45h105l57 162h-98l9 45h105l71 199h51l-71 -199h161l72 199h50l-73 -199h108zM470 446h-160l-58 -162h161z" />
    <glyph glyph-name="dollar" unicode="$" horiz-adv-x="519" 
d="M457 176c-20 -101 -108 -176 -220 -185l-12 -62h-53l12 63c-101 13 -158 89 -139 184h55c-16 -83 32 -132 116 -132c95 0 171 56 186 134c12 62 -10 100 -53 127c-55 35 -103 61 -156 93c-48 29 -77 82 -64 149c17 93 93 163 196 173l13 66h53l-13 -66h-6
c101 -9 163 -83 144 -182h-55c16 84 -33 129 -115 129c-76 0 -147 -43 -163 -123c-9 -45 8 -83 51 -107c46 -26 93 -52 148 -86c62 -38 90 -98 75 -175z" />
    <glyph glyph-name="percent" unicode="%" horiz-adv-x="805" 
d="M705 124c-14 -75 -71 -124 -148 -124s-119 48 -105 124l21 107c15 75 71 124 147 124c78 0 121 -47 106 -124zM386 481c-15 -75 -71 -124 -148 -124s-120 47 -105 124l20 107c15 75 72 124 148 124c78 0 120 -48 105 -124zM654 124l21 107c7 35 4 74 -59 74
c-48 0 -83 -27 -92 -74l-21 -107c-6 -34 -4 -74 58 -74c49 0 84 27 93 74zM335 481l20 107c7 34 5 74 -58 74c-48 0 -83 -27 -93 -74l-20 -107c-7 -35 -5 -74 57 -74c49 0 85 27 94 74zM669 769l-429 -825h-54l431 825h52z" />
    <glyph glyph-name="ampersand" unicode="&#x26;" horiz-adv-x="642" 
d="M548 156l-39 -41l-37 37c-35 -117 -145 -161 -231 -161c-98 0 -201 51 -173 199c15 77 58 137 147 185l28 14l-23 23c-39 40 -59 90 -48 144c25 126 130 164 211 164c111 0 186 -69 165 -175h-55c15 75 -28 121 -112 121c-60 0 -137 -20 -154 -112
c-11 -55 13 -86 43 -116zM243 45c68 0 164 27 186 151l-151 154l-35 -17c-66 -32 -109 -86 -120 -144c-22 -115 52 -144 120 -144z" />
    <glyph glyph-name="quotesingle" unicode="'" horiz-adv-x="220" 
d="M204 555h-55l37 186h55z" />
    <glyph glyph-name="parenleft" unicode="(" horiz-adv-x="281" 
d="M146 -50l-40 -37c-22 25 -37 43 -48 74c-10 29 -7 60 -1 91l107 550c6 31 15 62 36 91c23 31 46 49 77 74l30 -42c-21 -17 -43 -33 -59 -56c-13 -19 -25 -43 -31 -73l-104 -538c-6 -30 -10 -58 -4 -77c7 -23 23 -39 37 -57z" />
    <glyph glyph-name="parenright" unicode=")" horiz-adv-x="281" 
d="M173 78c-6 -31 -16 -63 -38 -92c-23 -31 -45 -48 -75 -73l-33 44c25 20 44 35 62 58c14 18 24 39 30 69l104 538c6 30 12 57 5 78c-8 24 -21 39 -36 57l39 36c21 -25 37 -42 47 -73c9 -29 8 -61 2 -92z" />
    <glyph glyph-name="asterisk" unicode="*" horiz-adv-x="565" 
d="M482 478l-28 -38l-96 65l-21 -126h-44l28 126l-120 -65l-15 38l122 60l-98 60l29 37l94 -64l22 126h44l-29 -126l122 64l14 -37l-122 -60z" />
    <glyph glyph-name="plus" unicode="+" horiz-adv-x="565" 
d="M497 259h-180l-37 -187h-51l37 187h-180l10 50h180l33 174h51l-33 -174h180z" />
    <glyph glyph-name="comma" unicode="," horiz-adv-x="279" 
d="M25 -109h-61l117 196h76z" />
    <glyph glyph-name="hyphen" unicode="-" horiz-adv-x="452" 
d="M379 259h-287l10 50h287z" />
    <glyph glyph-name="period" unicode="." horiz-adv-x="248" 
d="M129 0h-91l17 91h91z" />
    <glyph glyph-name="slash" unicode="/" horiz-adv-x="492" 
d="M517 771l-429 -825h-58l431 825h56z" />
    <glyph glyph-name="zero" unicode="0" horiz-adv-x="515" 
d="M219 -9c-121 0 -173 83 -153 184l70 361c19 101 95 184 216 184s173 -83 154 -184l-70 -361c-20 -101 -96 -184 -217 -184zM349 666c-73 0 -141 -39 -159 -132l-69 -357c-18 -93 27 -132 100 -132s142 39 160 132l69 357c18 93 -28 132 -101 132z" />
    <glyph glyph-name="one" unicode="1" horiz-adv-x="519" 
d="M400 0h-359l10 54h150l117 602l-111 -8l11 52l166 13l-128 -659h154z" />
    <glyph glyph-name="two" unicode="2" horiz-adv-x="515" 
d="M517 525c-12 -63 -54 -112 -104 -150c-68 -51 -162 -89 -228 -138c-45 -32 -76 -62 -88 -119l-12 -64h339l-10 -54h-394l24 124c13 71 63 121 122 161c69 47 150 83 215 128c45 31 73 67 82 111c17 88 -20 142 -110 142c-82 0 -159 -46 -175 -129h-55
c20 106 115 183 232 183c116 0 184 -80 162 -195z" />
    <glyph glyph-name="three" unicode="3" horiz-adv-x="515" 
d="M523 651l-202 -240c129 -11 150 -108 136 -176l-11 -55c-13 -63 -74 -189 -227 -189c-150 0 -178 113 -164 186h55c-22 -111 61 -132 110 -132c50 0 147 21 171 135l11 53c22 114 -68 129 -114 129h-39l10 51l206 246h-285l10 54h345z" />
    <glyph glyph-name="four" unicode="4" horiz-adv-x="515" 
d="M406 0h-55l40 207h-323l13 68l247 438h56l-253 -452h270l53 274h55z" />
    <glyph glyph-name="five" unicode="5" horiz-adv-x="515" 
d="M507 658h-264l-61 -232h117c104 0 188 -76 164 -193l-10 -49c-26 -121 -123 -193 -235 -193c-109 0 -191 73 -169 187h55c-16 -82 29 -133 118 -133c81 0 156 48 175 138l10 48c15 73 -17 141 -114 141h-175l13 66l73 274h314z" />
    <glyph glyph-name="six" unicode="6" horiz-adv-x="515" 
d="M445 174c-11 -59 -72 -183 -228 -183c-153 0 -175 121 -163 181l70 363c17 76 82 185 231 185c150 0 163 -120 152 -183h-55c20 110 -50 129 -101 129c-70 0 -154 -34 -174 -139l-27 -144c40 40 90 62 151 62c153 0 174 -119 161 -186zM391 177l16 81
c22 114 -66 133 -112 133s-147 -19 -169 -133l-16 -81c-22 -112 63 -132 109 -132s150 18 172 132z" />
    <glyph glyph-name="seven" unicode="7" horiz-adv-x="515" 
d="M549 651l-368 -651h-58l374 659h-358l10 54h412z" />
    <glyph glyph-name="eight" unicode="8" horiz-adv-x="515" 
d="M458 193c-15 -74 -70 -202 -243 -202c-160 0 -180 128 -165 202c10 52 37 127 130 172c-59 41 -65 119 -56 165c14 73 67 190 233 190c153 0 173 -117 159 -190c-9 -46 -48 -122 -125 -164c72 -46 76 -122 67 -173zM403 193c18 94 -28 146 -120 146
c-84 0 -160 -53 -178 -146c-25 -126 63 -148 121 -148c46 0 152 21 177 148zM461 530c22 115 -60 136 -115 136c-45 0 -145 -21 -167 -136c-17 -87 22 -137 114 -137c83 0 151 51 168 137z" />
    <glyph glyph-name="nine" unicode="9" horiz-adv-x="515" 
d="M516 539l-70 -363c-18 -93 -95 -185 -227 -185c-147 0 -167 120 -156 183h55c-20 -110 54 -129 104 -129s147 19 169 133l29 150c-40 -40 -90 -62 -151 -62c-153 0 -172 125 -161 186l17 85c11 65 73 183 229 183c153 0 174 -121 162 -181zM460 534
c22 114 -63 132 -109 132s-150 -18 -172 -132l-15 -81c-23 -114 63 -133 112 -133c46 0 148 19 169 133z" />
    <glyph glyph-name="colon" unicode=":" horiz-adv-x="248" 
d="M129 0h-91l17 91h91zM193 332h-91l18 91h91z" />
    <glyph glyph-name="semicolon" unicode=";" horiz-adv-x="246" 
d="M193 332h-91l18 91h91zM9 -109h-60l116 196h76z" />
    <glyph glyph-name="less" unicode="&#x3c;" horiz-adv-x="503" 
d="M380 0h-70l-218 265l312 262h81l-316 -265z" />
    <glyph glyph-name="equal" unicode="=" horiz-adv-x="594" 
d="M501 343h-357l10 50h357zM472 195h-357l10 50h357z" />
    <glyph glyph-name="greater" unicode="&#x3e;" horiz-adv-x="505" 
d="M439 265l-316 -265h-81l318 271l-207 256h69z" />
    <glyph glyph-name="question" unicode="?" horiz-adv-x="447" 
d="M481 528c-9 -48 -36 -84 -65 -112c-41 -39 -98 -67 -138 -102c-23 -20 -38 -44 -47 -89l-5 -25h-55l5 22c11 60 40 102 68 127c45 41 95 62 135 99c22 20 40 41 47 79c15 81 -20 139 -112 139c-57 0 -135 -14 -168 -126h-55c16 72 76 180 226 180c121 0 184 -89 164 -192
zM204 0h-82l16 83h82z" />
    <glyph glyph-name="at" unicode="@" horiz-adv-x="1090" 
d="M658 -133l15 -46c-52 -17 -107 -27 -162 -27c-262 0 -450 197 -436 462c14 262 243 482 502 482c250 0 452 -181 438 -437c-9 -174 -128 -301 -247 -301c-47 0 -113 23 -131 82c-51 -55 -112 -73 -173 -73c-107 0 -164 67 -138 177l40 165c26 107 112 176 225 176
c49 0 99 -21 113 -58l13 50h54l-85 -343c-19 -75 17 -126 83 -126c99 0 186 110 193 251c12 224 -160 386 -384 386c-230 0 -438 -195 -450 -431s149 -411 382 -411c48 0 101 7 148 22zM634 186l41 165c14 57 10 125 -96 125c-79 0 -140 -46 -159 -125l-40 -165
c-14 -57 -13 -127 95 -127c81 0 139 47 159 127z" />
    <glyph glyph-name="A" unicode="A" horiz-adv-x="540" 
d="M419 0l-17 208h-264l-97 -208h-56l334 713h93l58 -713h-51zM351 664l-188 -402h235l-31 402h-16z" />
    <glyph glyph-name="B" unicode="B" horiz-adv-x="548" 
d="M480 208l-5 -23c-17 -68 -62 -185 -218 -185h-215l138 713h202c147 0 162 -101 149 -179l-2 -11c-7 -39 -37 -126 -121 -157c79 -34 82 -115 72 -158zM474 524l2 9c20 91 -20 126 -98 126h-153l-52 -264h150c53 0 126 16 151 129zM420 186l5 21c27 113 -49 134 -103 134
h-159l-56 -287h150c47 0 136 19 163 132z" />
    <glyph glyph-name="C" unicode="C" horiz-adv-x="521" 
d="M529 536h-55c18 93 -34 130 -112 130s-153 -37 -172 -131l-69 -359c-19 -94 37 -131 112 -131c81 0 152 37 171 131h55v-1c-22 -110 -106 -184 -228 -184c-121 0 -187 74 -166 183l71 363c21 109 107 183 228 183c119 0 186 -74 165 -184z" />
    <glyph glyph-name="D" unicode="D" horiz-adv-x="548" 
d="M380 713c119 0 179 -74 157 -184l-66 -342c-22 -113 -101 -187 -221 -187h-208l138 713h200zM482 528c18 91 -26 131 -104 131h-153l-118 -605h145c76 0 145 37 164 134z" />
    <glyph glyph-name="E" unicode="E" horiz-adv-x="509" 
d="M416 0h-374l138 713h374l-10 -54h-319l-50 -254h295l-10 -54h-295l-58 -297h319z" />
    <glyph glyph-name="F" unicode="F" horiz-adv-x="499" 
d="M544 659h-319l-50 -255h295l-10 -54h-295l-68 -350h-55l138 713h374z" />
    <glyph glyph-name="G" unicode="G" horiz-adv-x="538" 
d="M529 536h-55c18 93 -34 130 -112 130s-153 -37 -172 -131l-69 -359c-19 -94 34 -131 112 -131c77 0 152 36 170 129l30 154h-152l11 54h207l-40 -207c-22 -110 -110 -184 -229 -184c-121 0 -186 74 -165 183l71 363c21 109 107 183 228 183c119 0 186 -74 165 -184z" />
    <glyph glyph-name="H" unicode="H" horiz-adv-x="572" 
d="M449 0h-55l67 348h-297l-67 -348h-55l138 713h55l-60 -311h297l60 311h55z" />
    <glyph glyph-name="I" unicode="I" horiz-adv-x="220" 
d="M180 713h55l-138 -713h-55z" />
    <glyph glyph-name="J" unicode="J" horiz-adv-x="452" 
d="M472 713l-105 -542c-22 -115 -96 -180 -207 -180c-110 0 -166 74 -145 182h55c-21 -107 39 -128 92 -128c59 0 129 21 149 124l96 490h-220l10 54h275z" />
    <glyph glyph-name="K" unicode="K" horiz-adv-x="510" 
d="M438 0h-60l-139 350l-96 -111l-46 -239h-55l138 713h55l-74 -376l337 376h66l-287 -321z" />
    <glyph glyph-name="L" unicode="L" horiz-adv-x="473" 
d="M415 0h-373l138 713h55l-128 -659h318z" />
    <glyph glyph-name="M" unicode="M" horiz-adv-x="663" 
d="M97 0h-55l138 713h77l89 -412l249 412h83l-138 -713h-55l124 636l-248 -409h-52l-88 409z" />
    <glyph glyph-name="N" unicode="N" horiz-adv-x="563" 
d="M440 0h-71l-150 628l-122 -628h-55l138 713h72l150 -627l121 627h55z" />
    <glyph glyph-name="O" unicode="O" horiz-adv-x="537" 
d="M231 -9c-121 0 -187 74 -166 183l71 363c21 109 107 183 228 183c119 0 186 -74 165 -184l-70 -361c-22 -110 -109 -184 -228 -184zM473 535c19 94 -34 131 -112 131s-152 -37 -171 -131l-69 -359c-19 -94 34 -131 112 -131s153 37 171 131z" />
    <glyph glyph-name="P" unicode="P" horiz-adv-x="523" 
d="M527 476c-12 -61 -62 -185 -215 -185h-159l-56 -291h-55l138 713h202c156 0 167 -124 156 -183zM471 477l11 51c22 114 -57 131 -104 131h-153l-61 -314h147c47 0 136 19 160 132z" />
    <glyph glyph-name="Q" unicode="Q" horiz-adv-x="538" 
d="M231 -110h-50l20 103c-102 11 -155 81 -136 181l71 363c21 109 107 183 228 183c119 0 186 -74 165 -184l-70 -361c-21 -104 -100 -175 -208 -183zM473 535c19 94 -34 131 -112 131s-152 -37 -171 -131l-69 -359c-17 -85 24 -124 90 -130l28 142h50l-28 -142
c67 8 127 47 143 130z" />
    <glyph glyph-name="R" unicode="R" horiz-adv-x="541" 
d="M446 0h-63l-85 311h-141l-60 -311h-55l138 713h202c156 0 168 -123 156 -182l-7 -35c-11 -54 -48 -151 -175 -180zM475 497l7 31c22 114 -57 131 -104 131h-153l-58 -294h147c47 0 135 19 161 132z" />
    <glyph glyph-name="S" unicode="S" horiz-adv-x="519" 
d="M459 176c-21 -107 -119 -186 -242 -186c-120 0 -191 82 -170 186h55c-16 -83 32 -132 116 -132c95 0 171 56 186 134c12 62 -10 100 -53 127c-55 35 -103 61 -156 93c-48 29 -77 82 -64 149c19 101 106 174 221 174c114 0 187 -77 166 -183h-55c16 84 -33 129 -115 129
c-76 0 -147 -43 -163 -123c-9 -45 8 -83 51 -107c46 -26 93 -52 148 -86c62 -38 90 -98 75 -175z" />
    <glyph glyph-name="T" unicode="T" horiz-adv-x="472" 
d="M531 659h-180l-128 -659h-55l128 659h-180l10 54h415z" />
    <glyph glyph-name="U" unicode="U" horiz-adv-x="537" 
d="M508 713h55l-104 -538c-22 -110 -109 -184 -228 -184c-121 0 -187 74 -166 183l105 539h55l-104 -537c-19 -94 34 -131 112 -131s152 37 171 131z" />
    <glyph glyph-name="V" unicode="V" horiz-adv-x="523" 
d="M533 713h58l-327 -713h-90l-49 713h51l45 -661h14z" />
    <glyph glyph-name="W" unicode="W" horiz-adv-x="794" 
d="M863 713l-287 -713h-77l-24 612l-264 -612h-75l-10 713h54l2 -661l282 660h57l25 -660l259 661h58z" />
    <glyph glyph-name="X" unicode="X" horiz-adv-x="488" 
d="M419 0h-58l-97 305l-210 -305h-66l255 362l-116 351h58l96 -302l209 302h65l-254 -357z" />
    <glyph glyph-name="Y" unicode="Y" horiz-adv-x="489" 
d="M558 713l-277 -456l-50 -257h-55l50 258l-100 455h55l83 -389l230 389h64z" />
    <glyph glyph-name="Z" unicode="Z" horiz-adv-x="453" 
d="M380 0h-387l10 56l428 603h-297l10 54h357l-10 -53l-429 -606h328z" />
    <glyph glyph-name="bracketleft" unicode="[" horiz-adv-x="304" 
d="M164 -85h-139l167 859h139l-10 -49h-89l-147 -761h89z" />
    <glyph glyph-name="backslash" unicode="\" horiz-adv-x="488" 
d="M350 -57h-49l-109 825h50z" />
    <glyph glyph-name="bracketright" unicode="]" horiz-adv-x="304" 
d="M164 -85h-139l10 49h89l147 761h-89l10 49h139z" />
    <glyph glyph-name="asciicircum" unicode="^" horiz-adv-x="488" 
d="M454 460h-51l-68 198l-144 -198h-60l185 253h53z" />
    <glyph glyph-name="underscore" unicode="_" horiz-adv-x="528" 
d="M456 -165h-530l9 45h530z" />
    <glyph glyph-name="grave" unicode="`" horiz-adv-x="301" 
d="M293 604h-46l-58 147h60z" />
    <glyph glyph-name="a" unicode="a" horiz-adv-x="522" 
d="M474 369l-71 -369h-55l12 63c-42 -46 -98 -72 -168 -72c-86 0 -167 49 -144 167c18 94 95 144 188 144h170l13 64c17 90 -28 116 -100 116c-66 0 -137 -27 -153 -109h-55c23 119 131 163 210 163c89 0 177 -43 153 -167zM383 180l13 72h-159c-67 0 -121 -27 -134 -94
c-18 -92 35 -113 103 -113c75 0 161 51 177 135z" />
    <glyph glyph-name="b" unicode="b" horiz-adv-x="535" 
d="M456 177c-22 -114 -107 -187 -222 -187c-54 0 -106 21 -126 63l-11 -53h-55l138 713h55l-45 -235c41 41 89 58 143 58c117 0 179 -71 157 -186zM401 177l34 173c11 60 5 132 -106 132c-86 0 -148 -48 -164 -132l-34 -173c-12 -60 -7 -133 105 -133c85 0 149 49 165 133z
" />
    <glyph glyph-name="c" unicode="c" horiz-adv-x="512" 
d="M326 536c113 0 178 -66 162 -175h-55c8 57 -5 121 -110 121c-86 0 -152 -48 -168 -132l-34 -173c-12 -60 -2 -133 110 -133c83 0 142 43 162 118h56c-26 -105 -111 -172 -221 -172c-118 0 -185 71 -162 187l34 173c21 113 110 186 226 186z" />
    <glyph glyph-name="d" unicode="d" horiz-adv-x="536" 
d="M155 350l-34 -173c-16 -84 20 -133 105 -133c112 0 154 73 166 133l34 173c16 84 -21 132 -107 132c-111 0 -152 -72 -164 -132zM66 177l34 173c22 115 105 186 222 186c54 0 99 -21 128 -62l46 239h55l-138 -713h-55l10 50c-38 -41 -90 -60 -144 -60
c-115 0 -180 73 -158 187z" />
    <glyph glyph-name="e" unicode="e" 
d="M487 350l-20 -100h-332l-14 -73c-12 -60 -3 -133 109 -133c80 0 144 43 164 118h55c-26 -105 -114 -172 -224 -172c-118 0 -182 71 -159 187l34 173c21 113 110 186 226 186c117 0 184 -71 161 -186zM422 304l9 46c11 60 3 132 -108 132c-86 0 -152 -48 -168 -132l-9 -46
h276z" />
    <glyph glyph-name="f" unicode="f" horiz-adv-x="327" 
d="M354 473h-130l-91 -473h-55l91 473h-95l11 54h95l8 42c17 88 68 144 161 144h40l-10 -54h-44c-31 0 -78 -18 -90 -78l-10 -54h130z" />
    <glyph glyph-name="g" unicode="g" horiz-adv-x="535" 
d="M348 -46l19 95c-37 -41 -89 -59 -142 -59c-118 0 -182 71 -159 187l34 173c21 113 107 186 223 186c53 0 109 -23 126 -63l10 54h55l-111 -573c-28 -141 -123 -180 -220 -180c-100 0 -171 57 -157 154h55c-8 -65 30 -101 104 -101c62 0 140 13 163 127zM393 181l32 169
c11 60 6 132 -105 132c-86 0 -149 -48 -165 -132l-34 -173c-12 -60 -6 -133 106 -133c85 0 150 53 166 137z" />
    <glyph glyph-name="h" unicode="h" horiz-adv-x="542" 
d="M423 0h-55l68 350c11 59 16 132 -96 132c-81 0 -160 -53 -175 -130l-68 -352h-55l138 713h55l-47 -245c45 48 102 68 155 68c117 0 170 -70 148 -186z" />
    <glyph glyph-name="i" unicode="i" horiz-adv-x="234" 
d="M105 0h-55l102 527h55zM234 624h-72l17 89h72z" />
    <glyph glyph-name="j" unicode="j" horiz-adv-x="230" 
d="M81 -95c-18 -93 -74 -131 -139 -131h-23l10 54h12c37 0 73 17 84 72l122 627h55zM230 624h-72l17 89h72z" />
    <glyph glyph-name="k" unicode="k" horiz-adv-x="497" 
d="M425 0h-62l-120 268l-114 -103l-32 -165h-55l138 713h55l-92 -467l313 281h74l-245 -222z" />
    <glyph glyph-name="l" unicode="l" horiz-adv-x="240" 
d="M63 131l113 582h55l-114 -587c-11 -55 14 -72 52 -72h17l-10 -54h-15c-66 0 -116 38 -98 131z" />
    <glyph glyph-name="m" unicode="m" horiz-adv-x="760" 
d="M716 388l-75 -388h-55l74 381c10 53 0 101 -68 101c-88 0 -141 -61 -159 -152l-64 -330h-55l73 378c10 52 -2 104 -66 104c-89 0 -142 -59 -160 -152l-64 -330h-55l102 527h55l-9 -49c47 47 95 58 140 58c62 0 96 -39 104 -82c56 69 115 82 166 82
c103 0 129 -81 116 -148z" />
    <glyph glyph-name="n" unicode="n" horiz-adv-x="542" 
d="M423 0h-55l68 350c11 59 12 132 -100 132c-81 0 -156 -53 -171 -130l-68 -352h-55l102 527h55l-12 -63c46 54 106 72 160 72c117 0 166 -70 144 -186z" />
    <glyph glyph-name="o" unicode="o" 
d="M453 177c-22 -114 -110 -187 -225 -187c-118 0 -185 71 -162 187l34 173c21 113 110 186 226 186c117 0 183 -71 161 -186zM398 177l34 173c11 60 2 132 -109 132c-86 0 -152 -48 -168 -132l-34 -173c-12 -60 -3 -133 109 -133c85 0 152 49 168 133z" />
    <glyph glyph-name="p" unicode="p" horiz-adv-x="536" 
d="M457 177c-23 -116 -105 -187 -223 -187c-53 0 -107 19 -127 63l-54 -279h-55l146 753h55l-9 -49c42 44 89 58 142 58c116 0 180 -73 159 -186zM402 177l34 173c16 84 -21 132 -107 132c-111 0 -153 -72 -164 -132l-33 -168c-16 -84 19 -138 104 -138
c112 0 154 73 166 133z" />
    <glyph glyph-name="q" unicode="q" horiz-adv-x="535" 
d="M155 350l-34 -173c-12 -60 -6 -133 106 -133c85 0 149 55 165 139l33 167c11 60 6 132 -105 132c-86 0 -149 -48 -165 -132zM66 177l34 173c21 113 107 186 223 186c53 0 102 -18 126 -60l10 51h55l-146 -753h-55l53 275c-33 -38 -88 -59 -141 -59
c-118 0 -182 71 -159 187z" />
    <glyph glyph-name="r" unicode="r" horiz-adv-x="313" 
d="M330 473h-29c-47 0 -119 -39 -139 -138l-65 -335h-55l102 527h55l-12 -62c33 46 81 62 118 62h36z" />
    <glyph glyph-name="s" unicode="s" horiz-adv-x="492" 
d="M426 147c-23 -117 -115 -155 -219 -155c-114 0 -184 61 -164 164h55c-14 -72 25 -110 110 -110c68 0 147 17 164 105c8 43 -15 65 -53 77c-42 13 -93 23 -130 33c-66 18 -105 65 -92 129c19 102 109 145 203 145c114 0 182 -58 163 -162h-55c12 68 -18 108 -112 108
c-60 0 -131 -17 -145 -93c-8 -37 12 -64 53 -75c34 -9 92 -20 135 -33c58 -18 101 -61 87 -133z" />
    <glyph glyph-name="t" unicode="t" horiz-adv-x="354" 
d="M74 473l11 54h105l36 186h55l-36 -186h120l-11 -54h-120l-67 -347c-11 -55 14 -72 52 -72h56l-10 -54h-53c-66 0 -117 38 -99 131l66 342h-105z" />
    <glyph glyph-name="u" unicode="u" horiz-adv-x="544" 
d="M421 0h-55l10 52c-45 -46 -92 -61 -145 -61c-118 0 -181 71 -159 186l68 350h55l-68 -350c-12 -60 -5 -132 107 -132c80 0 151 55 166 132l68 350h55z" />
    <glyph glyph-name="v" unicode="v" horiz-adv-x="460" 
d="M190 51h16l228 476h61l-256 -527h-97l-50 527h54z" />
    <glyph glyph-name="w" unicode="w" horiz-adv-x="699" 
d="M718 527l-225 -527h-74l-23 450l-197 -450h-71l-22 527h53l14 -474l208 474h56l26 -474l196 474h59z" />
    <glyph glyph-name="x" unicode="x" horiz-adv-x="438" 
d="M378 0h-62l-93 217l-178 -217h-67l218 265l-115 262h58l95 -219l176 219h70l-221 -266z" />
    <glyph glyph-name="y" unicode="y" horiz-adv-x="454" 
d="M182 0h-39l-52 527h54l44 -476h16l223 476h60l-299 -630c-51 -108 -101 -123 -181 -123h-5l11 54h15c47 0 76 10 103 66z" />
    <glyph glyph-name="z" unicode="z" horiz-adv-x="448" 
d="M363 0h-361l11 55l358 418h-266l10 54h329l-11 -55l-358 -418h298z" />
    <glyph glyph-name="braceleft" unicode="{" horiz-adv-x="302" 
d="M165 -71h-19c-87 0 -112 29 -96 113l121 622c16 82 50 113 132 113h27l-10 -49h-16c-57 0 -74 -13 -86 -76l-117 -602c-9 -46 -15 -72 50 -72h23z" />
    <glyph glyph-name="bar" unicode="|" horiz-adv-x="216" 
d="M80 -58h-50l161 828h50z" />
    <glyph glyph-name="braceright" unicode="}" horiz-adv-x="306" 
d="M190 41c-16 -83 -46 -113 -132 -113h-30l9 49h30c50 0 65 17 75 71l118 607c12 62 9 72 -52 72h-25l9 49h22c88 0 114 -28 97 -113z" />
    <glyph glyph-name="asciitilde" unicode="~" horiz-adv-x="534" 
d="M435 316l31 -33c-58 -47 -77 -57 -114 -57c-51 0 -109 48 -148 48c-24 0 -43 -11 -83 -44l-30 33c56 47 78 57 115 57c56 0 102 -48 147 -48c24 0 42 11 82 44z" />
    <glyph glyph-name="sterling" unicode="&#xa3;" horiz-adv-x="515" 
d="M524 535h-55c22 110 -54 129 -103 129c-53 0 -135 -23 -155 -127l-25 -129h221l-11 -54h-221l-58 -300h313l-10 -54h-368l68 354h-39l11 54h39l24 127c21 107 102 183 214 183c109 0 176 -76 155 -183z" />
    <glyph glyph-name="section" unicode="&#xa7;" horiz-adv-x="557" 
d="M124 387c8 43 28 75 56 99c-15 21 -21 49 -14 83c21 105 110 148 205 148c112 0 182 -59 162 -164h-55c13 69 -19 112 -111 112c-60 0 -134 -20 -149 -96c-7 -35 11 -66 49 -75c56 -13 106 -24 148 -34c60 -14 96 -59 83 -126c-8 -44 -28 -78 -54 -103
c13 -21 18 -48 12 -79c-23 -117 -117 -160 -221 -160c-111 0 -183 61 -163 164h55c-14 -72 28 -111 110 -111c68 0 150 19 167 107c8 43 -17 71 -53 80c-38 9 -95 22 -152 35c-54 12 -88 55 -75 120zM373 278c13 -3 25 -8 36 -15c17 16 31 40 37 71c9 43 -16 71 -52 80
c-39 9 -95 22 -153 35c-8 2 -17 4 -24 8c-21 -15 -35 -39 -41 -70c-7 -35 10 -66 49 -75c56 -13 106 -24 148 -34z" />
    <glyph glyph-name="bullet" unicode="&#x2022;" horiz-adv-x="372" 
d="M109 356c0 57 47 104 104 104s104 -47 104 -104s-47 -104 -104 -104s-104 47 -104 104z" />
    <glyph glyph-name="paragraph" unicode="&#xb6;" horiz-adv-x="491" 
d="M352 0h-55l129 665h-103l-129 -665h-55l77 400c-110 0 -165 75 -148 161c22 112 97 158 209 158h214z" />
    <glyph glyph-name="germandbls" unicode="&#xdf;" horiz-adv-x="546" 
d="M474 186c-12 -62 -63 -186 -216 -186h-55l10 54h47c47 0 137 19 159 132l10 51c22 114 -45 132 -92 132h-27l11 54h22c61 0 104 43 117 110c22 114 -53 132 -99 132c-47 0 -139 -18 -161 -132l-103 -533h-55l104 536c11 59 63 183 219 183c153 0 162 -125 150 -185
c-10 -55 -47 -118 -104 -136c84 -31 81 -116 73 -158z" />
    <glyph glyph-name="registered" unicode="&#xae;" horiz-adv-x="882" 
d="M594 417c0 -31 -14 -95 -88 -106l82 -162h-50l-82 161h-44v-161h-44v398h119c90 0 107 -73 107 -106v-24zM550 417v22c0 54 -39 64 -63 64h-75v-150h76c23 0 62 10 62 64zM829 353c0 -198 -160 -359 -358 -359s-359 161 -359 359s161 359 359 359s358 -161 358 -359z
M779 353c0 172 -138 310 -308 310s-309 -138 -309 -310s139 -310 309 -310s308 138 308 310z" />
    <glyph glyph-name="copyright" unicode="&#xa9;" horiz-adv-x="882" 
d="M566 255c0 -35 -18 -109 -110 -109c-90 0 -107 74 -107 109v195c0 34 18 107 109 107c90 0 108 -74 108 -108h-46c0 53 -38 63 -62 63c-23 0 -63 -10 -63 -64v-192c0 -54 40 -65 63 -65c24 0 62 11 62 64h46zM823 353c0 -198 -160 -359 -358 -359s-359 161 -359 359
s161 359 359 359s358 -161 358 -359zM773 353c0 171 -138 310 -308 310s-309 -138 -309 -310s139 -310 309 -310s308 138 308 310z" />
    <glyph glyph-name="trademark" unicode="&#x2122;" horiz-adv-x="704" 
d="M640 331h-44l63 325l-111 -223h-36l-25 222l-63 -324h-44l74 381h66l21 -217l102 217h71zM406 667h-97l-66 -336h-45l66 336h-97l8 45h239z" />
    <glyph glyph-name="acute" unicode="&#xb4;" horiz-adv-x="301" 
d="M325 751l-115 -147h-53l100 147h68z" />
    <glyph glyph-name="dieresis" unicode="&#xa8;" horiz-adv-x="452" 
d="M450 623h-72l17 90h72zM235 623h-72l17 90h72z" />
    <glyph glyph-name="guillemotleft" unicode="&#xab;" horiz-adv-x="489" 
d="M189 84l-146 181l216 181l-15 -77l-131 -109l89 -110zM391 84l-146 181l216 181l-15 -77l-131 -109l89 -110z" />
    <glyph glyph-name="guillemotright" unicode="&#xbb;" horiz-adv-x="488" 
d="M264 266l-215 -181l15 76l131 110l-88 109l13 67zM466 266l-215 -181l15 76l131 110l-88 109l13 67z" />
    <glyph glyph-name="ellipsis" unicode="&#x2026;" horiz-adv-x="673" 
d="M554 0h-76l16 87h76zM333 0h-75l16 87h75zM114 0h-76l16 87h76z" />
    <glyph glyph-name="Otilde" unicode="&#xd5;" horiz-adv-x="538" 
d="M231 -9c-121 0 -187 74 -166 183l71 363c21 109 107 183 228 183c119 0 186 -74 165 -184l-70 -361c-22 -110 -109 -184 -228 -184zM473 535c19 94 -34 131 -112 131s-152 -37 -171 -131l-69 -359c-19 -94 34 -131 112 -131s153 37 171 131zM510 859l31 -34
c-51 -42 -73 -45 -95 -45c-47 0 -82 45 -119 45c-16 0 -29 -4 -64 -32l-31 34c52 42 73 46 96 46c45 0 87 -45 118 -45c16 0 32 4 64 31z" />
    <glyph glyph-name="endash" unicode="&#x2013;" horiz-adv-x="585" 
d="M512 259h-420l10 50h420z" />
    <glyph glyph-name="emdash" unicode="&#x2014;" horiz-adv-x="844" 
d="M768 259h-676l10 50h676z" />
    <glyph glyph-name="quotedblleft" unicode="&#x201c;" horiz-adv-x="359" 
d="M341 741h52l-74 -186h-67zM214 741h53l-74 -186h-67z" />
    <glyph glyph-name="quotedblright" unicode="&#x201d;" horiz-adv-x="360" 
d="M315 555h-53l75 186h67zM188 555h-52l75 186h67z" />
    <glyph glyph-name="quoteleft" unicode="&#x2018;" horiz-adv-x="231" 
d="M214 741h52l-75 -186h-66z" />
    <glyph glyph-name="quoteright" unicode="&#x2019;" horiz-adv-x="230" 
d="M187 555h-52l74 186h66z" />
    <glyph glyph-name="divide" unicode="&#xf7;" horiz-adv-x="536" 
d="M269 0h-91l17 91h91zM333 332h-91l18 91h91zM445 188h-370l10 50h370z" />
    <glyph glyph-name="fraction" unicode="&#x2044;" horiz-adv-x="554" 
d="M567 713l-471 -713h-61l472 713h60z" />
    <glyph glyph-name="guilsinglleft" unicode="&#x2039;" horiz-adv-x="286" 
d="M189 84l-146 181l216 181l-15 -77l-131 -109l89 -110z" />
    <glyph glyph-name="guilsinglright" unicode="&#x203a;" horiz-adv-x="285" 
d="M262 266l-215 -181l15 76l131 110l-88 109l13 67z" />
    <glyph glyph-name="periodcentered" unicode="&#xb7;" horiz-adv-x="252" 
d="M172 223h-87l17 88h87z" />
    <glyph glyph-name="quotesinglbase" unicode="&#x201a;" horiz-adv-x="231" 
d="M59 -104h-52l74 186h66z" />
    <glyph glyph-name="quotedblbase" unicode="&#x201e;" horiz-adv-x="360" 
d="M60 -104h-52l74 186h67zM187 -104h-53l74 186h67z" />
    <glyph glyph-name="perthousand" unicode="&#x2030;" horiz-adv-x="1123" 
d="M1023 124c-14 -75 -71 -124 -148 -124s-119 48 -105 124l21 107c15 75 71 124 147 124c78 0 121 -47 106 -124zM386 481c-15 -75 -71 -124 -148 -124s-120 47 -105 124l20 107c15 75 72 124 148 124c78 0 120 -48 105 -124zM972 124l21 107c7 35 4 74 -59 74
c-48 0 -83 -27 -92 -74l-21 -107c-6 -34 -4 -74 58 -74c49 0 84 27 93 74zM335 481l20 107c7 34 5 74 -58 74c-48 0 -83 -27 -93 -74l-20 -107c-7 -35 -5 -74 57 -74c49 0 85 27 94 74zM669 769l-429 -825h-54l431 825h52zM705 124c-14 -75 -71 -124 -148 -124
s-119 48 -105 124l21 107c15 75 71 124 147 124c78 0 121 -47 106 -124zM654 124l21 107c7 35 4 74 -59 74c-48 0 -83 -27 -92 -74l-21 -107c-6 -34 -4 -74 58 -74c49 0 84 27 93 74z" />
    <glyph glyph-name="dotlessi" unicode="&#x131;" horiz-adv-x="219" 
d="M96 0h-54l102 527h54z" />
    <glyph glyph-name="circumflex" unicode="&#x2c6;" horiz-adv-x="420" 
d="M414 604h-47l-57 101l-96 -101h-55l128 147h55z" />
    <glyph glyph-name="tilde" unicode="&#x2dc;" horiz-adv-x="473" 
d="M446 687l31 -34c-51 -42 -73 -45 -95 -45c-47 0 -82 45 -119 45c-16 0 -29 -4 -64 -32l-31 34c52 42 73 46 96 46c45 0 87 -45 118 -45c16 0 32 4 64 31z" />
    <glyph glyph-name="macron" unicode="&#xaf;" horiz-adv-x="461" 
d="M461 635h-296l10 50h296z" />
    <glyph glyph-name="breve" unicode="&#x2d8;" horiz-adv-x="487" 
d="M327 606c-63 0 -127 39 -119 125h47c-3 -53 25 -80 74 -80s86 27 106 80h51c-26 -86 -93 -125 -159 -125z" />
    <glyph glyph-name="dotaccent" unicode="&#x2d9;" horiz-adv-x="238" 
d="M235 623h-72l17 90h72z" />
    <glyph glyph-name="ring" unicode="&#x2da;" horiz-adv-x="365" 
d="M370 664c-11 -54 -52 -99 -117 -99c-54 0 -92 47 -81 101c10 55 54 99 114 99c56 0 95 -45 84 -101zM328 665c6 32 -9 59 -44 59c-37 0 -64 -27 -70 -59c-6 -31 10 -59 41 -59c41 0 67 28 73 59z" />
    <glyph glyph-name="cedilla" unicode="&#xb8;" horiz-adv-x="282" 
d="M-16 -190l115 147h53l-100 -147h-68z" />
    <glyph glyph-name="hungarumlaut" unicode="&#x2dd;" horiz-adv-x="489" 
d="M360 747l-110 -139h-50l95 139h65zM484 747l-109 -139h-51l96 139h64z" />
    <glyph glyph-name="ogonek" unicode="&#x2db;" horiz-adv-x="291" 
d="M80 -43l59 -147h-60l-44 147h45z" />
    <glyph glyph-name="Euro" unicode="&#x20ac;" horiz-adv-x="546" 
d="M589 536h-55c18 93 -34 130 -112 130s-153 -37 -172 -131l-15 -76h196l-10 -50h-195l-19 -98h195l-10 -50h-195l-16 -85c-19 -94 37 -131 112 -131c81 0 152 37 171 131h55v-1c-22 -110 -106 -184 -228 -184c-121 0 -187 74 -166 183l17 87h-84l10 50h84l19 98h-84l10 50
h84l15 78c21 109 107 183 228 183c119 0 186 -74 165 -184z" />
    <glyph glyph-name="questiondown" unicode="&#xbf;" horiz-adv-x="427" 
d="M-12 6c9 48 36 84 65 112c41 39 98 67 138 102c23 20 38 44 47 89l5 25h55l-5 -22c-11 -60 -40 -102 -68 -127c-45 -41 -95 -62 -135 -99c-22 -20 -40 -41 -47 -79c-15 -81 20 -139 112 -139c57 0 135 14 168 126h55c-16 -72 -76 -180 -226 -180c-121 0 -184 89 -164 192
zM265 534h82l-16 -83h-82z" />
    <glyph glyph-name="exclamdown" unicode="&#xa1;" horiz-adv-x="248" 
d="M119 337h55l-98 -504h-55zM145 544h83l-16 -83h-83z" />
    <glyph glyph-name="yen" unicode="&#xa5;" horiz-adv-x="515" 
d="M569 713l-247 -407h124l-10 -50h-144l-20 -98h145l-10 -50h-144l-21 -108h-55l21 108h-140l10 50h139l19 98h-139l10 50h119l-89 407h55l83 -389l230 389h64z" />
    <glyph glyph-name="oe" unicode="&#x153;" horiz-adv-x="852" 
d="M461 250l-16 -82c-11 -58 1 -124 108 -124c80 0 141 43 161 118h55c-26 -105 -109 -172 -219 -172c-76 0 -129 29 -150 80c-42 -51 -103 -80 -176 -80c-118 0 -181 71 -158 187l34 173c21 113 107 186 223 186c75 0 126 -33 148 -81c47 55 104 81 178 81
c117 0 180 -71 158 -186l-20 -100h-326zM392 174l35 185c11 58 -3 123 -108 123c-86 0 -148 -48 -164 -132l-34 -173c-12 -60 -6 -133 106 -133c83 0 150 49 165 130zM742 303l10 47c11 60 4 132 -107 132c-84 0 -146 -46 -163 -126l-11 -53h271z" />
    <glyph glyph-name="OE" unicode="&#x152;" horiz-adv-x="837" 
d="M744 0h-374l8 43c-36 -31 -82 -52 -148 -52c-153 0 -176 125 -164 186l70 360c11 59 72 183 228 183c65 0 112 -26 135 -57l9 50h374l-10 -54h-319l-50 -254h295l-10 -54h-295l-58 -297h319zM404 176l69 359c23 114 -65 131 -111 131s-149 -17 -172 -131l-69 -358
c-22 -114 67 -132 113 -132c45 0 149 24 170 131z" />
    <glyph glyph-name="AE" unicode="&#xc6;" horiz-adv-x="791" 
d="M697 0h-374l40 208h-225l-95 -208h-57l323 713h526l-10 -54h-320l-49 -254h295l-11 -54h-294l-58 -297h319zM344 659l-182 -397h211l77 397h-106z" />
    <glyph glyph-name="ae" unicode="&#xe6;" horiz-adv-x="842" 
d="M797 350l-20 -100h-326l-13 -68c-12 -60 -7 -137 105 -137c80 0 141 42 161 117h55c-26 -105 -108 -171 -218 -171c-74 0 -135 36 -152 93c-42 -57 -118 -93 -197 -93c-90 0 -167 49 -144 167c18 94 101 145 194 145h164l13 64c17 90 -29 115 -101 115
c-61 0 -134 -24 -150 -109h-56c24 121 131 163 208 163c64 0 121 -23 145 -76c40 49 102 76 174 76c117 0 181 -71 158 -186zM383 181l13 69h-157c-66 0 -124 -28 -136 -92c-17 -88 30 -113 102 -113c99 0 167 76 178 136zM732 303l10 47c11 60 5 132 -106 132
c-84 0 -147 -46 -164 -126l-11 -53h271z" />
    <glyph glyph-name="fi" unicode="&#xfb01;" horiz-adv-x="556" 
d="M425 0h-55l91 472h-238l-91 -472h-55l91 472h-95l11 54h95l8 43c17 88 67 144 160 144h41l-10 -54h-43c-31 0 -79 -18 -91 -78l-10 -55h293zM555 631h-72l17 89h72z" />
    <glyph glyph-name="fl" unicode="&#xfb02;" horiz-adv-x="557" 
d="M385 131l66 341h-228l-91 -472h-55l91 472h-95l11 54h95l8 43c17 88 67 144 160 144h41l-10 -54h-43c-31 0 -79 -18 -91 -78l-10 -55h228l36 187h55l-114 -587c-11 -55 14 -72 52 -72h17l-10 -54h-14c-66 0 -117 38 -99 131z" />
    <glyph glyph-name="caron" unicode="&#x2c7;" horiz-adv-x="420" 
d="M389 751h53l-128 -147h-55l-72 147h48l58 -101z" />
    <glyph glyph-name="cent" unicode="&#xa2;" horiz-adv-x="512" 
d="M382 677l-28 -143c95 -10 148 -74 134 -173h-55c8 57 -5 121 -110 121c-86 0 -152 -48 -168 -132l-34 -173c-12 -60 -2 -133 110 -133c83 0 142 43 162 118h56c-25 -99 -100 -163 -200 -171l-28 -142h-50l28 143c-100 10 -154 78 -133 185l34 173c19 105 99 176 204 185
l28 142h50z" />
    <glyph glyph-name="oslash" unicode="&#xf8;" horiz-adv-x="532" 
d="M453 177c-22 -114 -110 -187 -225 -187c-39 0 -72 8 -98 21l-42 -63h-55l61 91c-29 33 -40 79 -28 138l34 173c21 113 110 186 226 186c35 0 66 -7 91 -19l40 60h54l-58 -86c32 -32 45 -81 34 -141zM398 177l34 173c6 31 6 67 -12 93l-259 -385c17 -9 39 -14 69 -14
c85 0 152 49 168 133zM121 177c-6 -30 -7 -62 7 -88l257 382c-16 7 -36 11 -62 11c-86 0 -152 -48 -168 -132z" />
    <glyph glyph-name="notequal" unicode="&#x2260;" horiz-adv-x="554" 
d="M558 645l-167 -252h112l-10 -50h-135l-65 -98h181l-10 -50h-204l-173 -263h-61l174 263h-113l10 50h136l65 98h-182l10 50h205l167 252h60z" />
    <glyph glyph-name="approxequal" unicode="&#x2248;" horiz-adv-x="534" 
d="M453 413l31 -33c-58 -47 -77 -57 -114 -57c-51 0 -109 48 -148 48c-24 0 -43 -11 -83 -44l-30 33c56 47 78 57 115 57c56 0 102 -48 147 -48c24 0 42 11 82 44zM428 276l31 -33c-58 -47 -77 -57 -114 -57c-51 0 -109 48 -148 48c-24 0 -43 -11 -83 -44l-30 33
c56 47 78 57 115 57c56 0 102 -48 147 -48c24 0 42 11 82 44z" />
    <glyph glyph-name="florin" unicode="&#x192;" horiz-adv-x="325" 
d="M223 472l-110 -567c-18 -93 -75 -131 -141 -131h-21l9 54h9c38 0 77 17 88 72l111 572h-95l11 54h95l8 43c17 88 67 144 160 144h41l-10 -54h-43c-31 0 -79 -18 -91 -78l-10 -55h130l-11 -54h-130z" />
    <glyph glyph-name="lessequal" unicode="&#x2264;" horiz-adv-x="485" 
d="M389 0h-370l9 50h370zM368 121h-70l-218 265l312 262h81l-316 -265z" />
    <glyph glyph-name="greaterequal" unicode="&#x2265;" horiz-adv-x="486" 
d="M385 0h-370l9 50h370zM475 386l-316 -265h-81l318 271l-207 256h69z" />
    <glyph glyph-name="mu" unicode="&#xb5;" horiz-adv-x="548" 
d="M53 -226h-55l146 753h55l-68 -350c-12 -60 -2 -132 106 -132c80 0 153 58 168 135l67 347h55l-102 -527h-55l9 51c-41 -45 -97 -60 -144 -60c-41 0 -107 14 -129 56z" />
    <glyph glyph-name="tcaron" unicode="&#x165;" horiz-adv-x="456" 
d="M74 473l11 54h105l36 186h55l-36 -186h120l-11 -54h-120l-67 -347c-11 -55 14 -72 52 -72h56l-10 -54h-53c-66 0 -117 38 -99 131l66 342h-105zM485 555h-55l37 186h55z" />
    <glyph glyph-name="dcaron" unicode="&#x10f;" horiz-adv-x="645" 
d="M155 350l-34 -173c-16 -84 20 -133 105 -133c112 0 154 73 166 133l34 173c16 84 -21 132 -107 132c-111 0 -152 -72 -164 -132zM66 177l34 173c22 115 105 186 222 186c54 0 99 -21 128 -62l46 239h55l-138 -713h-55l10 50c-38 -41 -90 -60 -144 -60
c-115 0 -180 73 -158 187zM682 555h-55l37 186h55z" />
    <glyph glyph-name="lcaron" unicode="&#x13e;" horiz-adv-x="338" 
d="M63 131l113 582h55l-114 -587c-11 -55 14 -72 52 -72h17l-10 -54h-15c-66 0 -116 38 -98 131zM365 555h-55l37 186h55z" />
    <glyph glyph-name="Lslash" unicode="&#x141;" horiz-adv-x="473" 
d="M415 0h-373l50 259h-57l10 50h57l78 404h55l-78 -404h230l-10 -50h-230l-40 -205h318z" />
    <glyph glyph-name="lslash" unicode="&#x142;" horiz-adv-x="280" 
d="M83 131l25 128h-94l10 50h94l78 404h55l-78 -404h98l-10 -50h-98l-26 -133c-11 -55 15 -72 53 -72h16l-10 -54h-15c-66 0 -116 38 -98 131z" />
    <glyph glyph-name="Dcroat" unicode="&#x110;" horiz-adv-x="551" 
d="M475 186c-12 -61 -62 -186 -215 -186h-214l68 350h-62l9 50h62l61 313h202c156 0 167 -124 156 -183zM339 350h-170l-58 -296h149c47 0 138 19 160 133l66 340c22 114 -55 132 -102 132h-155l-51 -259h170z" />
    <glyph glyph-name="dcroat" unicode="&#x111;" horiz-adv-x="536" 
d="M315 581l10 50h155l16 82h55l-16 -82h77l-10 -50h-77l-112 -581h-55l9 49c-38 -42 -89 -59 -143 -59c-115 0 -180 73 -158 187l34 173c22 115 105 186 222 186c54 0 99 -18 128 -62l20 107h-155zM155 350l-34 -173c-16 -84 20 -133 105 -133c112 0 156 80 168 140l32 166
c16 84 -21 132 -107 132c-111 0 -153 -72 -164 -132z" />
    <glyph glyph-name="Oslash" unicode="&#xd8;" horiz-adv-x="538" 
d="M231 -9c-53 0 -95 14 -124 38l-55 -83h-53l79 119c-16 30 -21 67 -13 109l71 363c21 109 107 183 228 183c51 0 92 -14 121 -38l50 75h53l-73 -110c17 -30 22 -68 14 -111l-70 -361c-22 -110 -109 -184 -228 -184zM473 535c4 20 4 37 2 52l-337 -510
c21 -22 54 -32 95 -32c78 0 153 37 171 131zM121 176c-4 -19 -5 -36 -3 -50l336 509c-20 21 -54 31 -93 31c-78 0 -152 -37 -171 -131z" />
    <glyph glyph-name="Thorn" unicode="&#xde;" horiz-adv-x="562" 
d="M180 713h55l-31 -160h167c114 0 175 -78 152 -193c-22 -118 -104 -194 -220 -194h-174l-32 -166h-55zM367 499h-174l-54 -279h165c60 0 143 28 164 140c17 85 -17 139 -101 139z" />
    <glyph glyph-name="thorn" unicode="&#xfe;" horiz-adv-x="535" 
d="M456 177c-22 -114 -108 -187 -223 -187c-54 0 -106 20 -126 62l-54 -278h-55l182 939h55l-46 -239c43 44 91 62 145 62c117 0 178 -71 156 -186zM401 177l34 173c11 60 5 132 -106 132c-86 0 -148 -48 -164 -132l-34 -173c-12 -60 -6 -133 106 -133c85 0 148 49 164 133z
" />
    <glyph glyph-name="infinity" unicode="&#x221e;" horiz-adv-x="869" 
d="M463 184l-21 50l-41 -50c-42 -52 -95 -93 -172 -93c-101 0 -159 79 -137 191s103 191 211 191c67 0 108 -41 130 -93l21 -51l41 51c42 52 95 93 172 93c101 0 159 -79 137 -191s-100 -191 -211 -191c-67 0 -108 41 -130 93zM533 345l-55 -64l30 -63c21 -44 37 -73 92 -73
c80 0 136 61 151 137s-7 137 -97 137c-45 0 -83 -30 -121 -74zM296 419c-80 0 -136 -61 -151 -137s7 -137 97 -137c45 0 83 30 120 74l56 65l-31 63c-21 43 -36 72 -91 72z" />
    <glyph glyph-name="daggerdbl" unicode="&#x2021;" horiz-adv-x="444" 
d="M194 -58h-50l46 234h-118l9 50h118l51 261h-118l10 50h118l45 233h50l-45 -233h119l-10 -50h-119l-51 -261h119l-9 -50h-119z" />
    <glyph glyph-name="plusminus" unicode="&#xb1;" horiz-adv-x="568" 
d="M499 259h-180l-33 -167h-51l33 167h-180l10 50h180l31 164h51l-31 -164h180zM448 0h-410l9 50h410z" />
    <glyph glyph-name="pi" unicode="&#x3c0;" horiz-adv-x="627" 
d="M408 126l68 351h-226l-92 -477h-55l92 477h-94l10 50h525l-10 -50h-95l-69 -356c-11 -55 14 -72 52 -72h20l-10 -54h-17c-66 0 -117 38 -99 131z" />
    <glyph glyph-name="dagger" unicode="&#x2020;" horiz-adv-x="444" 
d="M194 -58h-50l106 544h-118l10 50h118l45 234h50l-45 -234h119l-10 -50h-119z" />
    <glyph glyph-name="Eth" unicode="&#xd0;" horiz-adv-x="551" 
d="M475 186c-12 -61 -62 -186 -215 -186h-214l68 350h-62l9 50h62l61 313h202c156 0 167 -124 156 -183zM339 350h-170l-58 -296h149c47 0 138 19 160 133l66 340c22 114 -54 132 -101 132h-156l-51 -259h170z" />
    <glyph glyph-name="product" unicode="&#x220f;" horiz-adv-x="564" 
d="M445 0h-55l128 659h-297l-128 -659h-55l138 713h407z" />
    <glyph glyph-name="ordfeminine" unicode="&#xaa;" horiz-adv-x="412" 
d="M409 600l-47 -240h-45l8 34c-27 -23 -61 -40 -97 -40c-65 0 -113 41 -100 111c12 63 62 97 128 97h101l7 36c10 53 -18 69 -60 69c-39 0 -82 -18 -92 -70h-45c15 82 87 114 139 114c60 0 118 -32 103 -111zM340 476l9 45h-95c-37 0 -74 -17 -81 -56
c-10 -51 21 -68 60 -68c43 0 97 29 107 79z" />
    <glyph glyph-name="ordmasculine" unicode="&#xba;" horiz-adv-x="414" 
d="M387 476c-15 -76 -73 -124 -150 -124c-78 0 -122 47 -107 124l21 110c15 76 74 124 150 124c78 0 122 -47 107 -124zM342 476l21 110c8 37 2 80 -65 80c-52 0 -92 -29 -102 -80l-21 -110c-7 -36 -4 -80 64 -80c51 0 93 29 103 80z" />
    <glyph glyph-name="integral" unicode="&#x222b;" horiz-adv-x="293" 
d="M97 -95c-18 -93 -75 -131 -140 -131h-22l10 54h11c37 0 74 17 85 72l130 669c17 88 66 144 159 144h42l-10 -54h-44c-31 0 -78 -18 -90 -78z" />
    <glyph glyph-name="onehalf" unicode="&#xbd;" horiz-adv-x="752" 
d="M299 361h-191l8 45h73l53 271l-55 -5l9 44l101 10l-63 -320h73zM684 264c-7 -36 -26 -61 -51 -80c-48 -36 -140 -57 -151 -115l-5 -24h163l-8 -45h-209l13 72c8 37 34 64 65 85c46 30 128 54 138 106c7 37 -7 58 -45 58c-34 0 -67 -22 -75 -63h-46c12 63 63 108 124 108
c62 0 99 -41 87 -102zM630 771l-429 -825h-54l431 825h52z" />
    <glyph glyph-name="radical" unicode="&#x221a;" horiz-adv-x="613" 
d="M191 -175h24l419 889h59l-445 -940h-106l-46 527h55z" />
    <glyph glyph-name="eth" unicode="&#xf0;" horiz-adv-x="548" 
d="M532 535l-70 -363c-12 -60 -72 -181 -225 -181c-156 0 -177 124 -166 183l17 85c12 61 74 186 227 186c61 0 109 -24 133 -64l30 157c3 17 4 32 3 45l-102 -86l-32 40l114 96c-24 28 -65 34 -98 34l10 53c64 0 105 -22 130 -52l98 83l32 -40l-106 -89
c10 -30 10 -62 5 -87zM409 181l15 77c22 114 -64 133 -110 133s-149 -19 -171 -133l-16 -81c-22 -114 66 -132 112 -132s148 22 170 136z" />
    <glyph glyph-name="logicalnot" unicode="&#xac;" horiz-adv-x="564" 
d="M479 176h-55l33 172h-352l11 54h407z" />
    <glyph glyph-name="onequarter" unicode="&#xbc;" horiz-adv-x="719" 
d="M299 361h-191l8 45h73l53 271l-55 -5l9 44l101 10l-63 -320h73zM600 0h-45l19 100h-156l8 42l125 221h47l-122 -218h107l25 132h45zM630 771l-429 -825h-54l431 825h52z" />
    <glyph glyph-name="onesuperior" unicode="&#xb9;" horiz-adv-x="348" 
d="M299 361h-191l8 45h73l53 271l-55 -5l9 44l101 10l-63 -320h73z" />
    <glyph glyph-name="threequarters" unicode="&#xbe;" horiz-adv-x="729" 
d="M610 0h-45l19 100h-156l8 42l125 221h47l-122 -218h107l25 132h45zM370 680l-93 -106c57 -9 68 -58 61 -92l-5 -26c-6 -33 -38 -101 -119 -101c-83 0 -94 67 -86 109h45c-11 -53 23 -64 43 -64s63 9 72 56l5 25c9 47 -27 53 -46 53h-30l7 36l89 107h-129l9 45h185z
M640 771l-429 -825h-54l431 825h52z" />
    <glyph glyph-name="threesuperior" unicode="&#xb3;" horiz-adv-x="364" 
d="M370 680l-93 -106c57 -9 68 -58 61 -92l-5 -26c-6 -33 -38 -101 -119 -101c-83 0 -94 67 -86 109h45c-11 -53 23 -64 43 -64s63 9 72 56l5 25c9 47 -27 53 -46 53h-30l7 36l89 107h-129l9 45h185z" />
    <glyph glyph-name="twosuperior" unicode="&#xb2;" horiz-adv-x="367" 
d="M369 625c-7 -36 -26 -61 -51 -80c-48 -36 -140 -57 -151 -115l-5 -24h163l-8 -45h-209l13 72c8 37 34 64 65 85c46 30 128 54 138 106c7 37 -7 58 -45 58c-34 0 -67 -22 -75 -63h-46c12 63 63 108 124 108c62 0 99 -41 87 -102z" />
    <glyph glyph-name="degree" unicode="&#xb0;" horiz-adv-x="347" 
d="M162 589c0 -44 36 -80 80 -80s80 36 80 80s-36 80 -80 80s-80 -36 -80 -80zM118 589c0 68 56 124 124 124s124 -56 124 -124s-56 -124 -124 -124s-124 56 -124 124z" />
    <glyph glyph-name="partialdiff" unicode="&#x2202;" horiz-adv-x="536" 
d="M526 535l-70 -363c-12 -60 -72 -181 -225 -181c-156 0 -177 124 -166 183l17 85c12 61 74 186 227 186c61 0 109 -24 133 -64l29 152c22 114 -58 134 -114 134l10 53c153 0 171 -124 159 -185zM403 181l15 77c22 114 -64 133 -110 133s-149 -19 -171 -133l-16 -81
c-22 -114 66 -132 112 -132s148 22 170 136z" />
    <glyph glyph-name="Omega" unicode="&#x2126;" horiz-adv-x="538" 
d="M459 177c-7 -38 -27 -98 -82 -130h97l-9 -47h-210l9 47c50 7 121 35 140 130l69 358c19 94 -33 131 -111 131s-153 -37 -172 -131l-69 -358c-19 -95 42 -123 90 -130l-9 -47h-210l9 47h105c-43 32 -47 92 -40 130l70 360c21 109 108 183 229 183c119 0 185 -74 164 -184z
" />
    <glyph glyph-name="summation" unicode="&#x2211;" horiz-adv-x="565" 
d="M581 663h-348l235 -274l-11 -56l-344 -283h349l-10 -50h-420l10 55l376 311l-257 302l9 45h420z" />
    <glyph glyph-name="Delta" unicode="&#x2206;" horiz-adv-x="540" 
d="M473 0h-486l325 713h111zM344 664l-277 -611h350l-39 611h-34z" />
    <glyph glyph-name="lozenge" unicode="&#x25ca;" horiz-adv-x="540" 
d="M101 356l228 357h76l91 -357l-229 -356h-76zM155 354l78 -315l205 320l-75 315z" />
    <glyph glyph-name="uni00AD" unicode="&#xad;" horiz-adv-x="588" 
d="M514 259h-420l10 50h420z" />
    <glyph glyph-name="brokenbar" unicode="&#xa6;" horiz-adv-x="216" 
d="M178 432h-55l60 308h55zM89 -28h-55l60 309h55z" />
    <glyph glyph-name="minus" unicode="&#x2212;" horiz-adv-x="565" 
d="M477 259h-370l10 50h370z" />
    <glyph glyph-name="Scaron" unicode="&#x160;" horiz-adv-x="519" 
d="M459 176c-21 -107 -119 -186 -242 -186c-120 0 -191 82 -170 186h55c-16 -83 32 -132 116 -132c95 0 171 56 186 134c12 62 -10 100 -53 127c-55 35 -103 61 -156 93c-48 29 -77 82 -64 149c19 101 106 174 221 174c114 0 187 -77 166 -183h-55c16 84 -33 129 -115 129
c-76 0 -147 -43 -163 -123c-9 -45 8 -83 51 -107c46 -26 93 -52 148 -86c62 -38 90 -98 75 -175zM473 927h53l-128 -147h-55l-72 147h48l58 -101z" />
    <glyph glyph-name="scaron" unicode="&#x161;" horiz-adv-x="492" 
d="M426 147c-23 -117 -115 -155 -219 -155c-114 0 -184 61 -164 164h55c-14 -72 25 -110 110 -110c68 0 147 17 164 105c8 43 -15 65 -53 77c-42 13 -93 23 -130 33c-66 18 -105 65 -92 129c19 102 109 145 203 145c114 0 182 -58 163 -162h-55c12 68 -18 108 -112 108
c-60 0 -131 -17 -145 -93c-8 -37 12 -64 53 -75c34 -9 92 -20 135 -33c58 -18 101 -61 87 -133zM425 751h53l-128 -147h-55l-72 147h48l58 -101z" />
    <glyph glyph-name="Yacute" unicode="&#xdd;" horiz-adv-x="489" 
d="M558 713l-277 -456l-50 -257h-55l50 258l-100 455h55l83 -389l230 389h64zM473 927l-115 -147h-53l100 147h68z" />
    <glyph glyph-name="yacute" unicode="&#xfd;" horiz-adv-x="454" 
d="M182 0h-39l-52 527h54l44 -476h16l223 476h60l-299 -630c-51 -108 -101 -123 -181 -123h-5l11 54h15c47 0 76 10 103 66zM422 751l-115 -147h-53l100 147h68z" />
    <glyph glyph-name="Zcaron" unicode="&#x17d;" horiz-adv-x="453" 
d="M380 0h-387l10 56l428 603h-297l10 54h357l-10 -53l-429 -606h328zM440 927h53l-128 -147h-55l-72 147h48l58 -101z" />
    <glyph glyph-name="zcaron" unicode="&#x17e;" horiz-adv-x="448" 
d="M363 0h-361l11 55l358 418h-266l10 54h329l-11 -55l-358 -418h298zM403 751h53l-128 -147h-55l-72 147h48l58 -101z" />
    <glyph glyph-name="Adieresis" unicode="&#xc4;" horiz-adv-x="540" 
d="M419 0l-17 208h-264l-97 -208h-56l334 713h93l58 -713h-51zM351 664l-188 -402h235l-31 402h-16zM524 780h-72l17 90h72zM309 780h-72l17 90h72z" />
    <glyph glyph-name="Aring" unicode="&#xc5;" horiz-adv-x="540" 
d="M419 0l-17 208h-264l-97 -208h-56l334 713h93l58 -713h-51zM351 664l-188 -402h235l-31 402h-16zM494 850c-11 -54 -52 -99 -117 -99c-54 0 -92 47 -81 101c10 55 54 99 114 99c56 0 95 -45 84 -101zM452 851c6 32 -9 59 -44 59c-37 0 -64 -27 -70 -59
c-6 -31 10 -59 41 -59c41 0 67 28 73 59z" />
    <glyph glyph-name="Ccedilla" unicode="&#xc7;" horiz-adv-x="521" 
d="M529 536h-55c18 93 -34 130 -112 130s-153 -37 -172 -131l-69 -359c-19 -94 37 -131 112 -131c81 0 152 37 171 131h55v-1c-22 -110 -106 -184 -228 -184c-121 0 -187 74 -166 183l71 363c21 109 107 183 228 183c119 0 186 -74 165 -184zM83 -190l115 147h53l-100 -147
h-68z" />
    <glyph glyph-name="Eacute" unicode="&#xc9;" horiz-adv-x="509" 
d="M416 0h-374l138 713h374l-10 -54h-319l-50 -254h295l-10 -54h-295l-58 -297h319zM493 927l-115 -147h-53l100 147h68z" />
    <glyph glyph-name="Ntilde" unicode="&#xd1;" horiz-adv-x="563" 
d="M440 0h-71l-150 628l-122 -628h-55l138 713h72l150 -627l121 627h55zM524 859l31 -34c-51 -42 -73 -45 -95 -45c-47 0 -82 45 -119 45c-16 0 -29 -4 -64 -32l-31 34c52 42 73 46 96 46c45 0 87 -45 118 -45c16 0 32 4 64 31z" />
    <glyph glyph-name="Odieresis" unicode="&#xd6;" horiz-adv-x="537" 
d="M231 -9c-121 0 -187 74 -166 183l71 363c21 109 107 183 228 183c119 0 186 -74 165 -184l-70 -361c-22 -110 -109 -184 -228 -184zM473 535c19 94 -34 131 -112 131s-152 -37 -171 -131l-69 -359c-19 -94 34 -131 112 -131s153 37 171 131zM523 780h-72l17 90h72z
M308 780h-72l17 90h72z" />
    <glyph glyph-name="Udieresis" unicode="&#xdc;" horiz-adv-x="537" 
d="M508 713h55l-104 -538c-22 -110 -109 -184 -228 -184c-121 0 -187 74 -166 183l105 539h55l-104 -537c-19 -94 34 -131 112 -131s152 37 171 131zM523 780h-72l17 90h72zM308 780h-72l17 90h72z" />
    <glyph glyph-name="aacute" unicode="&#xe1;" horiz-adv-x="522" 
d="M474 369l-71 -369h-55l12 63c-42 -46 -98 -72 -168 -72c-86 0 -167 49 -144 167c18 94 95 144 188 144h170l13 64c17 90 -28 116 -100 116c-66 0 -137 -27 -153 -109h-55c23 119 131 163 210 163c89 0 177 -43 153 -167zM383 180l13 72h-159c-67 0 -121 -27 -134 -94
c-18 -92 35 -113 103 -113c75 0 161 51 177 135zM456 751l-115 -147h-53l100 147h68z" />
    <glyph glyph-name="agrave" unicode="&#xe0;" horiz-adv-x="522" 
d="M474 369l-71 -369h-55l12 63c-42 -46 -98 -72 -168 -72c-86 0 -167 49 -144 167c18 94 95 144 188 144h170l13 64c17 90 -28 116 -100 116c-66 0 -137 -27 -153 -109h-55c23 119 131 163 210 163c89 0 177 -43 153 -167zM383 180l13 72h-159c-67 0 -121 -27 -134 -94
c-18 -92 35 -113 103 -113c75 0 161 51 177 135zM384 604h-46l-58 147h60z" />
    <glyph glyph-name="acircumflex" unicode="&#xe2;" horiz-adv-x="522" 
d="M474 369l-71 -369h-55l12 63c-42 -46 -98 -72 -168 -72c-86 0 -167 49 -144 167c18 94 95 144 188 144h170l13 64c17 90 -28 116 -100 116c-66 0 -137 -27 -153 -109h-55c23 119 131 163 210 163c89 0 177 -43 153 -167zM383 180l13 72h-159c-67 0 -121 -27 -134 -94
c-18 -92 35 -113 103 -113c75 0 161 51 177 135zM465 604h-47l-57 101l-96 -101h-55l128 147h55z" />
    <glyph glyph-name="adieresis" unicode="&#xe4;" horiz-adv-x="522" 
d="M474 369l-71 -369h-55l12 63c-42 -46 -98 -72 -168 -72c-86 0 -167 49 -144 167c18 94 95 144 188 144h170l13 64c17 90 -28 116 -100 116c-66 0 -137 -27 -153 -109h-55c23 119 131 163 210 163c89 0 177 -43 153 -167zM383 180l13 72h-159c-67 0 -121 -27 -134 -94
c-18 -92 35 -113 103 -113c75 0 161 51 177 135zM485 623h-72l17 90h72zM270 623h-72l17 90h72z" />
    <glyph glyph-name="atilde" unicode="&#xe3;" horiz-adv-x="522" 
d="M474 369l-71 -369h-55l12 63c-42 -46 -98 -72 -168 -72c-86 0 -167 49 -144 167c18 94 95 144 188 144h170l13 64c17 90 -28 116 -100 116c-66 0 -137 -27 -153 -109h-55c23 119 131 163 210 163c89 0 177 -43 153 -167zM383 180l13 72h-159c-67 0 -121 -27 -134 -94
c-18 -92 35 -113 103 -113c75 0 161 51 177 135zM471 687l31 -34c-51 -42 -73 -45 -95 -45c-47 0 -82 45 -119 45c-16 0 -29 -4 -64 -32l-31 34c52 42 73 46 96 46c45 0 87 -45 118 -45c16 0 32 4 64 31z" />
    <glyph glyph-name="aring" unicode="&#xe5;" horiz-adv-x="522" 
d="M474 369l-71 -369h-55l12 63c-42 -46 -98 -72 -168 -72c-86 0 -167 49 -144 167c18 94 95 144 188 144h170l13 64c17 90 -28 116 -100 116c-66 0 -137 -27 -153 -109h-55c23 119 131 163 210 163c89 0 177 -43 153 -167zM383 180l13 72h-159c-67 0 -121 -27 -134 -94
c-18 -92 35 -113 103 -113c75 0 161 51 177 135zM449 664c-11 -54 -52 -99 -117 -99c-54 0 -92 47 -81 101c10 55 54 99 114 99c56 0 95 -45 84 -101zM407 665c6 32 -9 59 -44 59c-37 0 -64 -27 -70 -59c-6 -31 10 -59 41 -59c41 0 67 28 73 59z" />
    <glyph glyph-name="ccedilla" unicode="&#xe7;" horiz-adv-x="512" 
d="M326 536c113 0 178 -66 162 -175h-55c8 57 -5 121 -110 121c-86 0 -152 -48 -168 -132l-34 -173c-12 -60 -2 -133 110 -133c83 0 142 43 162 118h56c-26 -105 -111 -172 -221 -172c-118 0 -185 71 -162 187l34 173c21 113 110 186 226 186zM89 -190l115 147h53l-100 -147
h-68z" />
    <glyph glyph-name="eacute" unicode="&#xe9;" 
d="M487 350l-20 -100h-332l-14 -73c-12 -60 -3 -133 109 -133c80 0 144 43 164 118h55c-26 -105 -114 -172 -224 -172c-118 0 -182 71 -159 187l34 173c21 113 110 186 226 186c117 0 184 -71 161 -186zM422 304l9 46c11 60 3 132 -108 132c-86 0 -152 -48 -168 -132l-9 -46
h276zM456 751l-115 -147h-53l100 147h68z" />
    <glyph glyph-name="egrave" unicode="&#xe8;" 
d="M487 350l-20 -100h-332l-14 -73c-12 -60 -3 -133 109 -133c80 0 144 43 164 118h55c-26 -105 -114 -172 -224 -172c-118 0 -182 71 -159 187l34 173c21 113 110 186 226 186c117 0 184 -71 161 -186zM422 304l9 46c11 60 3 132 -108 132c-86 0 -152 -48 -168 -132l-9 -46
h276zM384 604h-46l-58 147h60z" />
    <glyph glyph-name="ecircumflex" unicode="&#xea;" 
d="M487 350l-20 -100h-332l-14 -73c-12 -60 -3 -133 109 -133c80 0 144 43 164 118h55c-26 -105 -114 -172 -224 -172c-118 0 -182 71 -159 187l34 173c21 113 110 186 226 186c117 0 184 -71 161 -186zM422 304l9 46c11 60 3 132 -108 132c-86 0 -152 -48 -168 -132l-9 -46
h276zM468 604h-47l-57 101l-96 -101h-55l128 147h55z" />
    <glyph glyph-name="edieresis" unicode="&#xeb;" 
d="M487 350l-20 -100h-332l-14 -73c-12 -60 -3 -133 109 -133c80 0 144 43 164 118h55c-26 -105 -114 -172 -224 -172c-118 0 -182 71 -159 187l34 173c21 113 110 186 226 186c117 0 184 -71 161 -186zM422 304l9 46c11 60 3 132 -108 132c-86 0 -152 -48 -168 -132l-9 -46
h276zM488 623h-72l17 90h72zM273 623h-72l17 90h72z" />
    <glyph glyph-name="iacute" unicode="&#xed;" horiz-adv-x="219" 
d="M96 0h-54l102 527h54zM329 751l-115 -147h-53l100 147h68z" />
    <glyph glyph-name="igrave" unicode="&#xec;" horiz-adv-x="219" 
d="M96 0h-54l102 527h54zM211 604h-46l-58 147h60z" />
    <glyph glyph-name="icircumflex" unicode="&#xee;" horiz-adv-x="219" 
d="M96 0h-54l102 527h54zM314 604h-47l-57 101l-96 -101h-55l128 147h55z" />
    <glyph glyph-name="idieresis" unicode="&#xef;" horiz-adv-x="219" 
d="M96 0h-54l102 527h54zM334 623h-72l17 90h72zM119 623h-72l17 90h72z" />
    <glyph glyph-name="ntilde" unicode="&#xf1;" horiz-adv-x="542" 
d="M423 0h-55l68 350c11 59 12 132 -100 132c-81 0 -156 -53 -171 -130l-68 -352h-55l102 527h55l-12 -63c46 54 106 72 160 72c117 0 166 -70 144 -186zM481 687l31 -34c-51 -42 -73 -45 -95 -45c-47 0 -82 45 -119 45c-16 0 -29 -4 -64 -32l-31 34c52 42 73 46 96 46
c45 0 87 -45 118 -45c16 0 32 4 64 31z" />
    <glyph glyph-name="oacute" unicode="&#xf3;" 
d="M453 177c-22 -114 -110 -187 -225 -187c-118 0 -185 71 -162 187l34 173c21 113 110 186 226 186c117 0 183 -71 161 -186zM398 177l34 173c11 60 2 132 -109 132c-86 0 -152 -48 -168 -132l-34 -173c-12 -60 -3 -133 109 -133c85 0 152 49 168 133zM466 751l-115 -147
h-53l100 147h68z" />
    <glyph glyph-name="ograve" unicode="&#xf2;" 
d="M453 177c-22 -114 -110 -187 -225 -187c-118 0 -185 71 -162 187l34 173c21 113 110 186 226 186c117 0 183 -71 161 -186zM398 177l34 173c11 60 2 132 -109 132c-86 0 -152 -48 -168 -132l-34 -173c-12 -60 -3 -133 109 -133c85 0 152 49 168 133zM384 604h-46l-58 147
h60z" />
    <glyph glyph-name="ocircumflex" unicode="&#xf4;" 
d="M453 177c-22 -114 -110 -187 -225 -187c-118 0 -185 71 -162 187l34 173c21 113 110 186 226 186c117 0 183 -71 161 -186zM398 177l34 173c11 60 2 132 -109 132c-86 0 -152 -48 -168 -132l-34 -173c-12 -60 -3 -133 109 -133c85 0 152 49 168 133zM470 604h-47l-57 101
l-96 -101h-55l128 147h55z" />
    <glyph glyph-name="odieresis" unicode="&#xf6;" 
d="M453 177c-22 -114 -110 -187 -225 -187c-118 0 -185 71 -162 187l34 173c21 113 110 186 226 186c117 0 183 -71 161 -186zM398 177l34 173c11 60 2 132 -109 132c-86 0 -152 -48 -168 -132l-34 -173c-12 -60 -3 -133 109 -133c85 0 152 49 168 133zM490 623h-72l17 90
h72zM275 623h-72l17 90h72z" />
    <glyph glyph-name="otilde" unicode="&#xf5;" 
d="M453 177c-22 -114 -110 -187 -225 -187c-118 0 -185 71 -162 187l34 173c21 113 110 186 226 186c117 0 183 -71 161 -186zM398 177l34 173c11 60 2 132 -109 132c-86 0 -152 -48 -168 -132l-34 -173c-12 -60 -3 -133 109 -133c85 0 152 49 168 133zM475 687l31 -34
c-51 -42 -73 -45 -95 -45c-47 0 -82 45 -119 45c-16 0 -29 -4 -64 -32l-31 34c52 42 73 46 96 46c45 0 87 -45 118 -45c16 0 32 4 64 31z" />
    <glyph glyph-name="uacute" unicode="&#xfa;" horiz-adv-x="544" 
d="M421 0h-55l10 52c-45 -46 -92 -61 -145 -61c-118 0 -181 71 -159 186l68 350h55l-68 -350c-12 -60 -5 -132 107 -132c80 0 151 55 166 132l68 350h55zM467 751l-115 -147h-53l100 147h68z" />
    <glyph glyph-name="ugrave" unicode="&#xf9;" horiz-adv-x="544" 
d="M421 0h-55l10 52c-45 -46 -92 -61 -145 -61c-118 0 -181 71 -159 186l68 350h55l-68 -350c-12 -60 -5 -132 107 -132c80 0 151 55 166 132l68 350h55zM385 604h-46l-58 147h60z" />
    <glyph glyph-name="ucircumflex" unicode="&#xfb;" horiz-adv-x="544" 
d="M421 0h-55l10 52c-45 -46 -92 -61 -145 -61c-118 0 -181 71 -159 186l68 350h55l-68 -350c-12 -60 -5 -132 107 -132c80 0 151 55 166 132l68 350h55zM476 604h-47l-57 101l-96 -101h-55l128 147h55z" />
    <glyph glyph-name="udieresis" unicode="&#xfc;" horiz-adv-x="544" 
d="M421 0h-55l10 52c-45 -46 -92 -61 -145 -61c-118 0 -181 71 -159 186l68 350h55l-68 -350c-12 -60 -5 -132 107 -132c80 0 151 55 166 132l68 350h55zM496 623h-72l17 90h72zM281 623h-72l17 90h72z" />
    <glyph glyph-name="Acircumflex" unicode="&#xc2;" horiz-adv-x="540" 
d="M419 0l-17 208h-264l-97 -208h-56l334 713h93l58 -713h-51zM351 664l-188 -402h235l-31 402h-16zM508 780h-47l-57 101l-96 -101h-55l128 147h55z" />
    <glyph glyph-name="Ecircumflex" unicode="&#xca;" horiz-adv-x="509" 
d="M416 0h-374l138 713h374l-10 -54h-319l-50 -254h295l-10 -54h-295l-58 -297h319zM493 780h-47l-57 101l-96 -101h-55l128 147h55z" />
    <glyph glyph-name="Aacute" unicode="&#xc1;" horiz-adv-x="540" 
d="M419 0l-17 208h-264l-97 -208h-56l334 713h93l58 -713h-51zM351 664l-188 -402h235l-31 402h-16zM509 927l-115 -147h-53l100 147h68z" />
    <glyph glyph-name="Edieresis" unicode="&#xcb;" horiz-adv-x="509" 
d="M416 0h-374l138 713h374l-10 -54h-319l-50 -254h295l-10 -54h-295l-58 -297h319zM509 780h-72l17 90h72zM294 780h-72l17 90h72z" />
    <glyph glyph-name="Egrave" unicode="&#xc8;" horiz-adv-x="509" 
d="M416 0h-374l138 713h374l-10 -54h-319l-50 -254h295l-10 -54h-295l-58 -297h319zM418 780h-46l-58 147h60z" />
    <glyph glyph-name="Iacute" unicode="&#xcd;" horiz-adv-x="220" 
d="M180 713h55l-138 -713h-55zM361 927l-115 -147h-53l100 147h68z" />
    <glyph glyph-name="Icircumflex" unicode="&#xce;" horiz-adv-x="220" 
d="M180 713h55l-138 -713h-55zM350 780h-47l-57 101l-96 -101h-55l128 147h55z" />
    <glyph glyph-name="Idieresis" unicode="&#xcf;" horiz-adv-x="220" 
d="M180 713h55l-138 -713h-55zM366 780h-72l17 90h72zM151 780h-72l17 90h72z" />
    <glyph glyph-name="Igrave" unicode="&#xcc;" horiz-adv-x="220" 
d="M180 713h55l-138 -713h-55zM245 780h-46l-58 147h60z" />
    <glyph glyph-name="Oacute" unicode="&#xd3;" horiz-adv-x="537" 
d="M231 -9c-121 0 -187 74 -166 183l71 363c21 109 107 183 228 183c119 0 186 -74 165 -184l-70 -361c-22 -110 -109 -184 -228 -184zM473 535c19 94 -34 131 -112 131s-152 -37 -171 -131l-69 -359c-19 -94 34 -131 112 -131s153 37 171 131zM509 927l-115 -147h-53
l100 147h68z" />
    <glyph glyph-name="Ocircumflex" unicode="&#xd4;" horiz-adv-x="537" 
d="M231 -9c-121 0 -187 74 -166 183l71 363c21 109 107 183 228 183c119 0 186 -74 165 -184l-70 -361c-22 -110 -109 -184 -228 -184zM473 535c19 94 -34 131 -112 131s-152 -37 -171 -131l-69 -359c-19 -94 34 -131 112 -131s153 37 171 131zM507 780h-47l-57 101
l-96 -101h-55l128 147h55z" />
    <glyph glyph-name="Ograve" unicode="&#xd2;" horiz-adv-x="537" 
d="M231 -9c-121 0 -187 74 -166 183l71 363c21 109 107 183 228 183c119 0 186 -74 165 -184l-70 -361c-22 -110 -109 -184 -228 -184zM473 535c19 94 -34 131 -112 131s-152 -37 -171 -131l-69 -359c-19 -94 34 -131 112 -131s153 37 171 131zM415 780h-46l-58 147h60z" />
    <glyph glyph-name="Uacute" unicode="&#xda;" horiz-adv-x="537" 
d="M508 713h55l-104 -538c-22 -110 -109 -184 -228 -184c-121 0 -187 74 -166 183l105 539h55l-104 -537c-19 -94 34 -131 112 -131s152 37 171 131zM497 927l-115 -147h-53l100 147h68z" />
    <glyph glyph-name="Ucircumflex" unicode="&#xdb;" horiz-adv-x="537" 
d="M508 713h55l-104 -538c-22 -110 -109 -184 -228 -184c-121 0 -187 74 -166 183l105 539h55l-104 -537c-19 -94 34 -131 112 -131s152 37 171 131zM507 780h-47l-57 101l-96 -101h-55l128 147h55z" />
    <glyph glyph-name="Ugrave" unicode="&#xd9;" horiz-adv-x="537" 
d="M508 713h55l-104 -538c-22 -110 -109 -184 -228 -184c-121 0 -187 74 -166 183l105 539h55l-104 -537c-19 -94 34 -131 112 -131s152 37 171 131zM435 780h-46l-58 147h60z" />
    <glyph glyph-name="Agrave" unicode="&#xc0;" horiz-adv-x="540" 
d="M419 0l-17 208h-264l-97 -208h-56l334 713h93l58 -713h-51zM351 664l-188 -402h235l-31 402h-16zM417 780h-46l-58 147h60z" />
    <glyph glyph-name="Atilde" unicode="&#xc3;" horiz-adv-x="540" 
d="M419 0l-17 208h-264l-97 -208h-56l334 713h93l58 -713h-51zM351 664l-188 -402h235l-31 402h-16zM513 859l31 -34c-51 -42 -73 -45 -95 -45c-47 0 -82 45 -119 45c-16 0 -29 -4 -64 -32l-31 34c52 42 73 46 96 46c45 0 87 -45 118 -45c16 0 32 4 64 31z" />
    <glyph glyph-name="Ydieresis" unicode="&#x178;" horiz-adv-x="489" 
d="M558 713l-277 -456l-50 -257h-55l50 258l-100 455h55l83 -389l230 389h64zM499 780h-72l17 90h72zM284 780h-72l17 90h72z" />
    <glyph glyph-name="ydieresis" unicode="&#xff;" horiz-adv-x="454" 
d="M182 0h-39l-52 527h54l44 -476h16l223 476h60l-299 -630c-51 -108 -101 -123 -181 -123h-5l11 54h15c47 0 76 10 103 66zM451 623h-72l17 90h72zM236 623h-72l17 90h72z" />
    <glyph glyph-name="Amacron" unicode="&#x100;" horiz-adv-x="540" 
d="M419 0l-17 208h-264l-97 -208h-56l334 713h93l58 -713h-51zM351 664l-188 -402h235l-31 402h-16zM533 800h-296l10 50h296z" />
    <glyph glyph-name="amacron" unicode="&#x101;" horiz-adv-x="522" 
d="M474 369l-71 -369h-55l12 63c-42 -46 -98 -72 -168 -72c-86 0 -167 49 -144 167c18 94 95 144 188 144h170l13 64c17 90 -28 116 -100 116c-66 0 -137 -27 -153 -109h-55c23 119 131 163 210 163c89 0 177 -43 153 -167zM383 180l13 72h-159c-67 0 -121 -27 -134 -94
c-18 -92 35 -113 103 -113c75 0 161 51 177 135zM492 635h-296l10 50h296z" />
    <glyph glyph-name="Aogonek" unicode="&#x104;" horiz-adv-x="540" 
d="M419 0l-17 208h-264l-97 -208h-56l334 713h93l58 -713h-51zM351 664l-188 -402h235l-31 402h-16zM465 -43l59 -147h-60l-44 147h45z" />
    <glyph glyph-name="aogonek" unicode="&#x105;" horiz-adv-x="522" 
d="M474 369l-71 -369h-55l12 63c-42 -46 -98 -72 -168 -72c-86 0 -167 49 -144 167c18 94 95 144 188 144h170l13 64c17 90 -28 116 -100 116c-66 0 -137 -27 -153 -109h-55c23 119 131 163 210 163c89 0 177 -43 153 -167zM383 180l13 72h-159c-67 0 -121 -27 -134 -94
c-18 -92 35 -113 103 -113c75 0 161 51 177 135zM388 -43l59 -147h-60l-44 147h45z" />
    <glyph glyph-name="Ccaron" unicode="&#x10c;" horiz-adv-x="521" 
d="M529 536h-55c18 93 -34 130 -112 130s-153 -37 -172 -131l-69 -359c-19 -94 37 -131 112 -131c81 0 152 37 171 131h55v-1c-22 -110 -106 -184 -228 -184c-121 0 -187 74 -166 183l71 363c21 109 107 183 228 183c119 0 186 -74 165 -184zM484 927h53l-128 -147h-55
l-72 147h48l58 -101z" />
    <glyph glyph-name="ccaron" unicode="&#x10d;" horiz-adv-x="512" 
d="M326 536c113 0 178 -66 162 -175h-55c8 57 -5 121 -110 121c-86 0 -152 -48 -168 -132l-34 -173c-12 -60 -2 -133 110 -133c83 0 142 43 162 118h56c-26 -105 -111 -172 -221 -172c-118 0 -185 71 -162 187l34 173c21 113 110 186 226 186zM435 751h53l-128 -147h-55
l-72 147h48l58 -101z" />
    <glyph glyph-name="Cacute" unicode="&#x106;" horiz-adv-x="521" 
d="M529 536h-55c18 93 -34 130 -112 130s-153 -37 -172 -131l-69 -359c-19 -94 37 -131 112 -131c81 0 152 37 171 131h55v-1c-22 -110 -106 -184 -228 -184c-121 0 -187 74 -166 183l71 363c21 109 107 183 228 183c119 0 186 -74 165 -184zM509 927l-115 -147h-53l100 147
h68z" />
    <glyph glyph-name="cacute" unicode="&#x107;" horiz-adv-x="512" 
d="M326 536c113 0 178 -66 162 -175h-55c8 57 -5 121 -110 121c-86 0 -152 -48 -168 -132l-34 -173c-12 -60 -2 -133 110 -133c83 0 142 43 162 118h56c-26 -105 -111 -172 -221 -172c-118 0 -185 71 -162 187l34 173c21 113 110 186 226 186zM456 751l-115 -147h-53
l100 147h68z" />
    <glyph glyph-name="Zacute" unicode="&#x179;" horiz-adv-x="453" 
d="M380 0h-387l10 56l428 603h-297l10 54h357l-10 -53l-429 -606h328zM451 927l-115 -147h-53l100 147h68z" />
    <glyph glyph-name="zacute" unicode="&#x17a;" horiz-adv-x="448" 
d="M363 0h-361l11 55l358 418h-266l10 54h329l-11 -55l-358 -418h298zM419 751l-115 -147h-53l100 147h68z" />
    <glyph glyph-name="Dcaron" unicode="&#x10e;" horiz-adv-x="548" 
d="M380 713c119 0 179 -74 157 -184l-66 -342c-22 -113 -101 -187 -221 -187h-208l138 713h200zM482 528c18 91 -26 131 -104 131h-153l-118 -605h145c76 0 145 37 164 134zM487 927h53l-128 -147h-55l-72 147h48l58 -101z" />
    <glyph glyph-name="Emacron" unicode="&#x112;" horiz-adv-x="509" 
d="M416 0h-374l138 713h374l-10 -54h-319l-50 -254h295l-10 -54h-295l-58 -297h319zM527 800h-296l10 50h296z" />
    <glyph glyph-name="emacron" unicode="&#x113;" 
d="M487 350l-20 -100h-332l-14 -73c-12 -60 -3 -133 109 -133c80 0 144 43 164 118h55c-26 -105 -114 -172 -224 -172c-118 0 -182 71 -159 187l34 173c21 113 110 186 226 186c117 0 184 -71 161 -186zM422 304l9 46c11 60 3 132 -108 132c-86 0 -152 -48 -168 -132l-9 -46
h276zM494 635h-296l10 50h296z" />
    <glyph glyph-name="Edotaccent" unicode="&#x116;" horiz-adv-x="509" 
d="M416 0h-374l138 713h374l-10 -54h-319l-50 -254h295l-10 -54h-295l-58 -297h319zM401 780h-72l17 90h72z" />
    <glyph glyph-name="edotaccent" unicode="&#x117;" 
d="M487 350l-20 -100h-332l-14 -73c-12 -60 -3 -133 109 -133c80 0 144 43 164 118h55c-26 -105 -114 -172 -224 -172c-118 0 -182 71 -159 187l34 173c21 113 110 186 226 186c117 0 184 -71 161 -186zM422 304l9 46c11 60 3 132 -108 132c-86 0 -152 -48 -168 -132l-9 -46
h276zM380 623h-72l17 90h72z" />
    <glyph glyph-name="Ecaron" unicode="&#x11a;" horiz-adv-x="509" 
d="M416 0h-374l138 713h374l-10 -54h-319l-50 -254h295l-10 -54h-295l-58 -297h319zM468 927h53l-128 -147h-55l-72 147h48l58 -101z" />
    <glyph glyph-name="ecaron" unicode="&#x11b;" 
d="M487 350l-20 -100h-332l-14 -73c-12 -60 -3 -133 109 -133c80 0 144 43 164 118h55c-26 -105 -114 -172 -224 -172c-118 0 -182 71 -159 187l34 173c21 113 110 186 226 186c117 0 184 -71 161 -186zM422 304l9 46c11 60 3 132 -108 132c-86 0 -152 -48 -168 -132l-9 -46
h276zM443 751h53l-128 -147h-55l-72 147h48l58 -101z" />
    <glyph glyph-name="Eogonek" unicode="&#x118;" horiz-adv-x="509" 
d="M416 0h-374l138 713h374l-10 -54h-319l-50 -254h295l-10 -54h-295l-58 -297h319zM238 -43l59 -147h-60l-44 147h45z" />
    <glyph glyph-name="eogonek" unicode="&#x119;" 
d="M487 350l-20 -100h-332l-14 -73c-12 -60 -3 -133 109 -133c80 0 144 43 164 118h55c-26 -105 -114 -172 -224 -172c-118 0 -182 71 -159 187l34 173c21 113 110 186 226 186c117 0 184 -71 161 -186zM422 304l9 46c11 60 3 132 -108 132c-86 0 -152 -48 -168 -132l-9 -46
h276zM237 -43l59 -147h-60l-44 147h45z" />
    <glyph glyph-name="Iogonek" unicode="&#x12e;" horiz-adv-x="220" 
d="M180 713h55l-138 -713h-55zM83 -43l59 -147h-60l-44 147h45z" />
    <glyph glyph-name="iogonek" unicode="&#x12f;" horiz-adv-x="234" 
d="M105 0h-55l102 527h55zM234 624h-72l17 89h72zM90 -43l59 -147h-60l-44 147h45z" />
    <glyph glyph-name="imacron" unicode="&#x12b;" horiz-adv-x="219" 
d="M96 0h-54l102 527h54zM341 635h-296l10 50h296z" />
    <glyph glyph-name="Kcommaaccent" unicode="&#x136;" horiz-adv-x="510" 
d="M438 0h-60l-139 350l-96 -111l-46 -239h-55l138 713h55l-74 -376l337 376h66l-287 -321zM71 -190l115 147h53l-100 -147h-68z" />
    <glyph glyph-name="nacute" unicode="&#x144;" horiz-adv-x="542" 
d="M423 0h-55l68 350c11 59 12 132 -100 132c-81 0 -156 -53 -171 -130l-68 -352h-55l102 527h55l-12 -63c46 54 106 72 160 72c117 0 166 -70 144 -186zM466 751l-115 -147h-53l100 147h68z" />
    <glyph glyph-name="Ncaron" unicode="&#x147;" horiz-adv-x="563" 
d="M440 0h-71l-150 628l-122 -628h-55l138 713h72l150 -627l121 627h55zM495 927h53l-128 -147h-55l-72 147h48l58 -101z" />
    <glyph glyph-name="Sacute" unicode="&#x15a;" horiz-adv-x="519" 
d="M459 176c-21 -107 -119 -186 -242 -186c-120 0 -191 82 -170 186h55c-16 -83 32 -132 116 -132c95 0 171 56 186 134c12 62 -10 100 -53 127c-55 35 -103 61 -156 93c-48 29 -77 82 -64 149c19 101 106 174 221 174c114 0 187 -77 166 -183h-55c16 84 -33 129 -115 129
c-76 0 -147 -43 -163 -123c-9 -45 8 -83 51 -107c46 -26 93 -52 148 -86c62 -38 90 -98 75 -175zM498 927l-115 -147h-53l100 147h68z" />
    <glyph glyph-name="sacute" unicode="&#x15b;" horiz-adv-x="492" 
d="M426 147c-23 -117 -115 -155 -219 -155c-114 0 -184 61 -164 164h55c-14 -72 25 -110 110 -110c68 0 147 17 164 105c8 43 -15 65 -53 77c-42 13 -93 23 -130 33c-66 18 -105 65 -92 129c19 102 109 145 203 145c114 0 182 -58 163 -162h-55c12 68 -18 108 -112 108
c-60 0 -131 -17 -145 -93c-8 -37 12 -64 53 -75c34 -9 92 -20 135 -33c58 -18 101 -61 87 -133zM456 751l-115 -147h-53l100 147h68z" />
    <glyph glyph-name="Tcaron" unicode="&#x164;" horiz-adv-x="472" 
d="M531 659h-180l-128 -659h-55l128 659h-180l10 54h415zM449 927h53l-128 -147h-55l-72 147h48l58 -101z" />
    <glyph glyph-name="Umacron" unicode="&#x16a;" horiz-adv-x="537" 
d="M508 713h55l-104 -538c-22 -110 -109 -184 -228 -184c-121 0 -187 74 -166 183l105 539h55l-104 -537c-19 -94 34 -131 112 -131s152 37 171 131zM530 800h-296l10 50h296z" />
    <glyph glyph-name="umacron" unicode="&#x16b;" horiz-adv-x="544" 
d="M421 0h-55l10 52c-45 -46 -92 -61 -145 -61c-118 0 -181 71 -159 186l68 350h55l-68 -350c-12 -60 -5 -132 107 -132c80 0 151 55 166 132l68 350h55zM503 635h-296l10 50h296z" />
    <glyph glyph-name="Uring" unicode="&#x16e;" horiz-adv-x="537" 
d="M508 713h55l-104 -538c-22 -110 -109 -184 -228 -184c-121 0 -187 74 -166 183l105 539h55l-104 -537c-19 -94 34 -131 112 -131s152 37 171 131zM492 850c-11 -54 -52 -99 -117 -99c-54 0 -92 47 -81 101c10 55 54 99 114 99c56 0 95 -45 84 -101zM450 851
c6 32 -9 59 -44 59c-37 0 -64 -27 -70 -59c-6 -31 10 -59 41 -59c41 0 67 28 73 59z" />
    <glyph glyph-name="uring" unicode="&#x16f;" horiz-adv-x="544" 
d="M421 0h-55l10 52c-45 -46 -92 -61 -145 -61c-118 0 -181 71 -159 186l68 350h55l-68 -350c-12 -60 -5 -132 107 -132c80 0 151 55 166 132l68 350h55zM460 664c-11 -54 -52 -99 -117 -99c-54 0 -92 47 -81 101c10 55 54 99 114 99c56 0 95 -45 84 -101zM418 665
c6 32 -9 59 -44 59c-37 0 -64 -27 -70 -59c-6 -31 10 -59 41 -59c41 0 67 28 73 59z" />
    <glyph glyph-name="Uhungarumlaut" unicode="&#x170;" horiz-adv-x="537" 
d="M508 713h55l-104 -538c-22 -110 -109 -184 -228 -184c-121 0 -187 74 -166 183l105 539h55l-104 -537c-19 -94 34 -131 112 -131s152 37 171 131zM451 919l-110 -139h-50l95 139h65zM575 919l-109 -139h-51l96 139h64z" />
    <glyph glyph-name="uhungarumlaut" unicode="&#x171;" horiz-adv-x="544" 
d="M421 0h-55l10 52c-45 -46 -92 -61 -145 -61c-118 0 -181 71 -159 186l68 350h55l-68 -350c-12 -60 -5 -132 107 -132c80 0 151 55 166 132l68 350h55zM411 747l-110 -139h-50l95 139h65zM535 747l-109 -139h-51l96 139h64z" />
    <glyph glyph-name="Zdotaccent" unicode="&#x17b;" horiz-adv-x="453" 
d="M380 0h-387l10 56l428 603h-297l10 54h357l-10 -53l-429 -606h328zM373 780h-72l17 90h72z" />
    <glyph glyph-name="zdotaccent" unicode="&#x17c;" horiz-adv-x="448" 
d="M363 0h-361l11 55l358 418h-266l10 54h329l-11 -55l-358 -418h298zM341 623h-72l17 90h72z" />
    <glyph glyph-name="Omacron" unicode="&#x14c;" horiz-adv-x="537" 
d="M231 -9c-121 0 -187 74 -166 183l71 363c21 109 107 183 228 183c119 0 186 -74 165 -184l-70 -361c-22 -110 -109 -184 -228 -184zM473 535c19 94 -34 131 -112 131s-152 -37 -171 -131l-69 -359c-19 -94 34 -131 112 -131s153 37 171 131zM531 800h-296l10 50h296z" />
    <glyph glyph-name="ohungarumlaut" unicode="&#x151;" 
d="M453 177c-22 -114 -110 -187 -225 -187c-118 0 -185 71 -162 187l34 173c21 113 110 186 226 186c117 0 183 -71 161 -186zM398 177l34 173c11 60 2 132 -109 132c-86 0 -152 -48 -168 -132l-34 -173c-12 -60 -3 -133 109 -133c85 0 152 49 168 133zM414 747l-110 -139
h-50l95 139h65zM538 747l-109 -139h-51l96 139h64z" />
    <glyph glyph-name="Ohungarumlaut" unicode="&#x150;" horiz-adv-x="537" 
d="M231 -9c-121 0 -187 74 -166 183l71 363c21 109 107 183 228 183c119 0 186 -74 165 -184l-70 -361c-22 -110 -109 -184 -228 -184zM473 535c19 94 -34 131 -112 131s-152 -37 -171 -131l-69 -359c-19 -94 34 -131 112 -131s153 37 171 131zM451 919l-110 -139h-50
l95 139h65zM575 919l-109 -139h-51l96 139h64z" />
    <glyph glyph-name="ncaron" unicode="&#x148;" horiz-adv-x="542" 
d="M423 0h-55l68 350c11 59 12 132 -100 132c-81 0 -156 -53 -171 -130l-68 -352h-55l102 527h55l-12 -63c46 54 106 72 160 72c117 0 166 -70 144 -186zM450 751h53l-128 -147h-55l-72 147h48l58 -101z" />
    <glyph glyph-name="Nacute" unicode="&#x143;" horiz-adv-x="563" 
d="M440 0h-71l-150 628l-122 -628h-55l138 713h72l150 -627l121 627h55zM520 927l-115 -147h-53l100 147h68z" />
    <glyph glyph-name="Lcaron" unicode="&#x13d;" horiz-adv-x="473" 
d="M415 0h-373l138 713h55l-128 -659h318zM454 555h-55l37 186h55z" />
    <glyph glyph-name="Lacute" unicode="&#x139;" horiz-adv-x="473" 
d="M415 0h-373l138 713h55l-128 -659h318zM425 927l-115 -147h-53l100 147h68z" />
    <glyph glyph-name="lacute" unicode="&#x13a;" horiz-adv-x="240" 
d="M63 131l113 582h55l-114 -587c-11 -55 14 -72 52 -72h17l-10 -54h-15c-66 0 -116 38 -98 131zM358 927l-115 -147h-53l100 147h68z" />
    <glyph glyph-name="rcaron" unicode="&#x159;" horiz-adv-x="313" 
d="M330 473h-29c-47 0 -119 -39 -139 -138l-65 -335h-55l102 527h55l-12 -62c33 46 81 62 118 62h36zM336 751h53l-128 -147h-55l-72 147h48l58 -101z" />
    <glyph glyph-name="Rcaron" unicode="&#x158;" horiz-adv-x="541" 
d="M446 0h-63l-85 311h-141l-60 -311h-55l138 713h202c156 0 168 -123 156 -182l-7 -35c-11 -54 -48 -151 -175 -180zM475 497l7 31c22 114 -57 131 -104 131h-153l-58 -294h147c47 0 135 19 161 132zM474 927h53l-128 -147h-55l-72 147h48l58 -101z" />
    <glyph glyph-name="racute" unicode="&#x155;" horiz-adv-x="313" 
d="M330 473h-29c-47 0 -119 -39 -139 -138l-65 -335h-55l102 527h55l-12 -62c33 46 81 62 118 62h36zM331 751l-115 -147h-53l100 147h68z" />
    <glyph glyph-name="Racute" unicode="&#x154;" horiz-adv-x="541" 
d="M446 0h-63l-85 311h-141l-60 -311h-55l138 713h202c156 0 168 -123 156 -182l-7 -35c-11 -54 -48 -151 -175 -180zM475 497l7 31c22 114 -57 131 -104 131h-153l-58 -294h147c47 0 135 19 161 132zM489 927l-115 -147h-53l100 147h68z" />
    <glyph glyph-name="omacron" unicode="&#x14d;" 
d="M453 177c-22 -114 -110 -187 -225 -187c-118 0 -185 71 -162 187l34 173c21 113 110 186 226 186c117 0 183 -71 161 -186zM398 177l34 173c11 60 2 132 -109 132c-86 0 -152 -48 -168 -132l-34 -173c-12 -60 -3 -133 109 -133c85 0 152 49 168 133zM496 635h-296l10 50
h296z" />
    <glyph glyph-name="abreve" unicode="&#x103;" horiz-adv-x="522" 
d="M474 369l-71 -369h-55l12 63c-42 -46 -98 -72 -168 -72c-86 0 -167 49 -144 167c18 94 95 144 188 144h170l13 64c17 90 -28 116 -100 116c-66 0 -137 -27 -153 -109h-55c23 119 131 163 210 163c89 0 177 -43 153 -167zM383 180l13 72h-159c-67 0 -121 -27 -134 -94
c-18 -92 35 -113 103 -113c75 0 161 51 177 135zM343 606c-63 0 -127 39 -119 125h47c-3 -53 25 -80 74 -80s86 27 106 80h51c-26 -86 -93 -125 -159 -125z" />
    <glyph glyph-name="uogonek" unicode="&#x173;" horiz-adv-x="544" 
d="M421 0h-55l10 52c-45 -46 -92 -61 -145 -61c-118 0 -181 71 -159 186l68 350h55l-68 -350c-12 -60 -5 -132 107 -132c80 0 151 55 166 132l68 350h55zM409 -43l59 -147h-60l-44 147h45z" />
    <glyph glyph-name="Abreve" unicode="&#x102;" horiz-adv-x="540" 
d="M419 0l-17 208h-264l-97 -208h-56l334 713h93l58 -713h-51zM351 664l-188 -402h235l-31 402h-16zM385 780c-63 0 -127 39 -119 125h47c-3 -53 25 -80 74 -80s86 27 106 80h51c-26 -86 -93 -125 -159 -125z" />
    <glyph glyph-name="Uogonek" unicode="&#x172;" horiz-adv-x="537" 
d="M508 713h55l-104 -538c-22 -110 -109 -184 -228 -184c-121 0 -187 74 -166 183l105 539h55l-104 -537c-19 -94 34 -131 112 -131s152 37 171 131zM244 -43l59 -147h-60l-44 147h45z" />
    <glyph glyph-name="Lcommaaccent" unicode="&#x13b;" horiz-adv-x="473" 
d="M415 0h-373l138 713h55l-128 -659h318zM74 -190l115 147h53l-100 -147h-68z" />
    <glyph glyph-name="Ncommaaccent" unicode="&#x145;" horiz-adv-x="563" 
d="M440 0h-71l-150 628l-122 -628h-55l138 713h72l150 -627l121 627h55zM94 -190l115 147h53l-100 -147h-68z" />
    <glyph glyph-name="Rcommaaccent" unicode="&#x156;" horiz-adv-x="541" 
d="M446 0h-63l-85 311h-141l-60 -311h-55l138 713h202c156 0 168 -123 156 -182l-7 -35c-11 -54 -48 -151 -175 -180zM475 497l7 31c22 114 -57 131 -104 131h-153l-58 -294h147c47 0 135 19 161 132zM84 -190l115 147h53l-100 -147h-68z" />
    <glyph glyph-name="Gcommaaccent" unicode="&#x122;" horiz-adv-x="538" 
d="M529 536h-55c18 93 -34 130 -112 130s-153 -37 -172 -131l-69 -359c-19 -94 34 -131 112 -131c77 0 152 36 170 129l30 154h-152l11 54h207l-40 -207c-22 -110 -110 -184 -229 -184c-121 0 -186 74 -165 183l71 363c21 109 107 183 228 183c119 0 186 -74 165 -184z
M84 -190l115 147h53l-100 -147h-68z" />
    <glyph glyph-name="Scommaaccent" unicode="&#x218;" horiz-adv-x="519" 
d="M459 176c-21 -107 -119 -186 -242 -186c-120 0 -191 82 -170 186h55c-16 -83 32 -132 116 -132c95 0 171 56 186 134c12 62 -10 100 -53 127c-55 35 -103 61 -156 93c-48 29 -77 82 -64 149c19 101 106 174 221 174c114 0 187 -77 166 -183h-55c16 84 -33 129 -115 129
c-76 0 -147 -43 -163 -123c-9 -45 8 -83 51 -107c46 -26 93 -52 148 -86c62 -38 90 -98 75 -175zM82 -190l115 147h53l-100 -147h-68z" />
    <glyph glyph-name="Tcommaaccent" unicode="&#x162;" horiz-adv-x="472" 
d="M531 659h-180l-128 -659h-55l128 659h-180l10 54h415zM43 -190l115 147h53l-100 -147h-68z" />
    <glyph glyph-name="ncommaaccent" unicode="&#x146;" horiz-adv-x="542" 
d="M423 0h-55l68 350c11 59 12 132 -100 132c-81 0 -156 -53 -171 -130l-68 -352h-55l102 527h55l-12 -63c46 54 106 72 160 72c117 0 166 -70 144 -186zM84 -190l115 147h53l-100 -147h-68z" />
    <glyph glyph-name="lcommaaccent" unicode="&#x13c;" horiz-adv-x="240" 
d="M63 131l113 582h55l-114 -587c-11 -55 14 -72 52 -72h17l-10 -54h-15c-66 0 -116 38 -98 131zM-4 -190l115 147h53l-100 -147h-68z" />
    <glyph glyph-name="rcommaaccent" unicode="&#x157;" horiz-adv-x="313" 
d="M330 473h-29c-47 0 -119 -39 -139 -138l-65 -335h-55l102 527h55l-12 -62c33 46 81 62 118 62h36zM-78 -190l115 147h53l-100 -147h-68z" />
    <glyph glyph-name="scommaaccent" unicode="&#x219;" horiz-adv-x="492" 
d="M426 147c-23 -117 -115 -155 -219 -155c-114 0 -184 61 -164 164h55c-14 -72 25 -110 110 -110c68 0 147 17 164 105c8 43 -15 65 -53 77c-42 13 -93 23 -130 33c-66 18 -105 65 -92 129c19 102 109 145 203 145c114 0 182 -58 163 -162h-55c12 68 -18 108 -112 108
c-60 0 -131 -17 -145 -93c-8 -37 12 -64 53 -75c34 -9 92 -20 135 -33c58 -18 101 -61 87 -133zM64 -190l115 147h53l-100 -147h-68z" />
    <glyph glyph-name="tcommaaccent" unicode="&#x163;" horiz-adv-x="354" 
d="M74 473l11 54h105l36 186h55l-36 -186h120l-11 -54h-120l-67 -347c-11 -55 14 -72 52 -72h56l-10 -54h-53c-66 0 -117 38 -99 131l66 342h-105zM85 -190l115 147h53l-100 -147h-68z" />
    <glyph glyph-name="kcommaaccent" unicode="&#x137;" horiz-adv-x="497" 
d="M425 0h-62l-120 268l-114 -103l-32 -165h-55l138 713h55l-92 -467l313 281h74l-245 -222zM74 -190l115 147h53l-100 -147h-68z" />
    <glyph glyph-name="gcommaaccent" unicode="&#x123;" horiz-adv-x="535" 
d="M348 -46l19 95c-37 -41 -89 -59 -142 -59c-118 0 -182 71 -159 187l34 173c21 113 107 186 223 186c53 0 109 -23 126 -63l10 54h55l-111 -573c-28 -141 -123 -180 -220 -180c-100 0 -171 57 -157 154h55c-8 -65 30 -101 104 -101c62 0 140 13 163 127zM393 181l32 169
c11 60 6 132 -105 132c-86 0 -149 -48 -165 -132l-34 -173c-12 -60 -6 -133 106 -133c85 0 150 53 166 137zM466 751l-115 -147h-53l100 147h68z" />
    <glyph glyph-name="Imacron" unicode="&#x12a;" horiz-adv-x="220" 
d="M180 713h55l-138 -713h-55zM371 800h-296l10 50h296z" />
    <glyph glyph-name="CR" horiz-adv-x="220" 
 />
    </font>
</defs>
</svg>
