<?xml version="1.0" encoding="utf-8"?>
<!-- Generator: Adobe Illustrator 16.0.4, SVG Export Plug-In . SVG Version: 6.00 Build 0)  -->
<!DOCTYPE svg PUBLIC "-//W3C//DTD SVG 1.1//EN" "http://www.w3.org/Graphics/SVG/1.1/DTD/svg11.dtd">
<svg version="1.1" id="Ebene_1" xmlns="http://www.w3.org/2000/svg" xmlns:xlink="http://www.w3.org/1999/xlink" x="0px" y="0px"
	 width="323.439px" height="47px" viewBox="0 0 323.439 47" enable-background="new 0 0 323.439 47" xml:space="preserve">
<g>
	<path d="M21.041,42.859V24.035H4.975v18.824H2V4.292h2.975v16.823h16.066V4.292h2.975v38.568H21.041z"/>
	<path d="M32.944,42.859V4.292h20.23v2.921H35.92v13.74h15.957v2.921H35.92v16.065h17.255v2.921H32.944z"/>
	<path d="M63.455,4.292v38.568H60.48V4.292H63.455z"/>
	<path d="M89.746,42.859L75.357,8.889v33.97h-2.976V4.292h4.003l14.551,34.403V4.292h2.975v38.568H89.746z"/>
	<path d="M102.84,42.859V4.292h20.23v2.921h-17.256v13.74h15.957v2.921h-15.957v16.065h17.256v2.921H102.84z"/>
	<path d="M148.82,42.859l-7.843-16.823h-7.627v16.823h-2.976V4.292h11.144c8.438,0,10.115,6.653,10.115,9.845v1.893
		c0,2.921-1.298,8.493-7.519,9.791l8.113,17.039H148.82z M148.658,14.299c0-6.167-4.705-7.086-7.248-7.086h-8.06v15.903h8.168
		c2.542,0,7.14-0.974,7.14-7.14V14.299z"/>
</g>
<g>
	<path d="M172.721,42.859V4.292h5.248v33.375h16.119v5.193H172.721z"/>
	<path d="M198.256,42.859V4.292h21.42v5.193h-16.174v10.494h14.984v5.193h-14.984v12.495h16.174v5.193H198.256z"/>
	<path d="M230.984,4.292v38.568h-5.246V4.292H230.984z"/>
	<path d="M248.62,43.346c-6.978,0-11.468-4.598-11.468-10.656h5.248c0,3.516,2.596,5.518,6.166,5.518
		c4.057,0,6.599-2.38,6.599-5.625c0-2.488-1.406-4.057-3.354-5.193c-1.568-0.92-4.057-2.218-8.763-4.598
		c-3.084-1.568-5.247-4.922-5.247-8.817c0-5.842,4.489-10.007,10.872-10.007c6.654,0,11.252,4.382,11.252,10.44h-5.301
		c0-3.408-2.543-5.301-5.951-5.301c-3.137,0-5.625,1.785-5.625,4.977c0,1.839,1.082,3.354,2.975,4.328
		c3.084,1.569,5.843,2.921,8.331,4.273c3.948,2.164,6.058,5.625,6.058,10.007C260.412,38.856,255.273,43.346,248.62,43.346z"/>
	<path d="M284.162,42.859l-9.898-16.606l-2.488,3.732v12.874h-5.247V4.292h5.247v16.336l11.63-16.336h6.112l-12.171,17.364
		l12.819,21.204H284.162z"/>
	<path d="M314.403,42.859l-2.705-10.494h-11.63l-2.759,10.494H291.9l10.062-38.568h7.573l10.223,38.568H314.403z M305.91,9.755
		l-4.598,17.417h9.033L305.91,9.755z"/>
</g>
</svg>
